<?xml version="1.0" standalone="no"?>
<!DOCTYPE svg PUBLIC "-//W3C//DTD SVG 1.1//EN" "http://www.w3.org/Graphics/SVG/1.1/DTD/svg11.dtd">
<svg xmlns="http://www.w3.org/2000/svg">
<metadata>Copyright (C) 2018 by original authors @ fontello.com</metadata>
<defs>
<font id="icomoon" horiz-adv-x="1000" >
<font-face font-family="icomoon" font-weight="400" font-stretch="normal" units-per-em="1000" ascent="850" descent="-150" />
<missing-glyph horiz-adv-x="1000" />
<glyph glyph-name="i-archives-militaires-2" unicode="&#x1818;" d="M89 846c-33-7-62-29-76-59-11-23-11-27-11-152l1-114 5-15c9-24 17-34 58-75l40-39-15-19c-18-23-26-37-39-63-18-39-28-78-29-122-7-160 107-299 270-330 25-4 87-4 112 0 163 31 277 169 270 330-2 70-28 137-73 191l-10 12 42 42c37 38 42 43 49 57 13 27 13 30 13 152 0 72-1 113-2 120-7 36-33 65-69 80l-14 5-257 0c-141 0-261 0-265-1z m520-61c4-3 11-8 14-11 13-14 13-11 13-132 0-106 0-110-4-121-4-11-8-16-64-71l-60-59 10-10c33-30 54-55 70-86 19-39 28-75 28-119 0-55-13-99-43-144-39-59-98-98-169-114-30-7-80-7-110 0-95 21-170 86-199 174-18 53-18 112-1 164 15 47 41 85 86 125l10 10-60 59c-56 55-60 60-64 71-4 11-4 15-4 121 0 121 0 118 13 132 6 6 14 11 23 14 3 1 117 2 254 1l249 0 8-4z m-453-159v-102h54v204h-54v-102z m166-28v-130h54v260h-54v-130z m166 28v-102h54v204h-54v-102z m-145-310c-6-2-5-1-26-51l-18-44-99-2-5-6c-5-6-6-11-3-17 1-2 20-15 42-30 22-15 40-27 40-28 0-1-6-23-13-49-7-26-13-49-13-51 0-7 7-13 14-13 6 0 13 5 46 30 21 16 40 30 41 30 1 0 20-14 41-30 33-25 40-30 46-30 7 0 14 6 14 13 0 2-6 26-13 52-7 27-13 49-12 50 1 1 20 13 41 28s40 27 41 29c2 6 1 11-4 16l-5 6-99 2-18 45c-11 25-20 46-22 47-3 4-11 5-16 3z" horiz-adv-x="702.1" />

<glyph glyph-name="ic_local_offer_black_24px-1" unicode="&#x3535;" d="M892 368l-375 375c-15 15-36 24-59 24h-291c-46 0-84-38-84-84v-291c0-23 10-44 25-59l375-376c15-15 36-24 59-24s43 9 58 25l292 292c16 15 25 35 25 58s-10 45-25 60z m-663 190c-34 0-62 28-62 63s28 62 62 62 63-28 63-62-28-63-63-63z" horiz-adv-x="1000" />

<glyph glyph-name="essai" unicode="&#x7777;" d="M480 812c-67-5-129-21-170-46-64-38-110-105-131-186-6-24-11-60-9-61 1-1 207-27 234-29 5-1 5 0 9 22 5 26 9 38 17 55 7 14 23 31 35 38 20 12 46 16 71 13 41-6 62-28 63-67 0-14-1-18-5-27-9-17-26-35-65-68-50-42-85-74-100-91-39-46-55-94-55-169v-22h235l2 23c6 53 23 78 95 136 71 57 106 94 126 133 30 59 28 132-4 195-20 42-62 83-110 110-32 17-82 32-126 38-30 4-81 5-112 3z m-114-811v-111h252v222h-252v-111z" horiz-adv-x="1000" />

<glyph glyph-name="i-1ere-guerre" unicode="&#xe600;" d="M476 673c-30-16-75-39-101-52-133-66-217-185-220-312-1-52-3-54-47-92-46-38-80-92-80-125 0-23 54-70 99-85 65-24 238-16 393 17 209 45 320 86 413 157 41 30 38 51-11 80-39 22-40 25-45 78-7 73-32 127-89 191-26 28-47 56-47 61 0 18-61 78-97 93-56 26-105 23-168-11z" horiz-adv-x="1000" />

<glyph glyph-name="i-2eme-guerre" unicode="&#xe601;" d="M347 830c-42-5-84-18-122-36-109-53-182-150-204-271-5-28-5-85 0-109 5-23 6-25 8-11 1 16 13 38 25 51 6 6 16 13 25 17 14 7 17 8 34 9 30 1 52-8 71-27 12-13 19-25 23-39 2-10 3-11 4-5 5 23 11 36 23 49 48 55 142 31 157-41l2-12 2 9c4 24 25 51 50 63 13 6 15 6 38 6 24 0 24 0 39-8 11-5 19-10 26-19 12-13 17-21 22-39l3-12 2 10c2 21 18 45 37 58 46 30 109 14 133-33 3-6 7-17 9-25l3-14 2 16c3 27 2 84-2 106-21 120-95 218-204 271-63 31-138 44-206 36z m46-437c-3-2-3-12-3-116 1-103 1-114 4-116 3-1 5-1 7 1 3 2 3 15 3 116 0 109 0 114-4 116-2 1-4 1-7-1z m355-6c-3-4-227-299-235-311-2-4-3-6 0-9 1-2 4-3 6-2 4 1 239 311 241 316 0 3-3 9-6 9-1 0-3-2-6-3z m-173-1c-4-2-115-260-115-265 1-6 9-6 13 0 9 18 111 257 111 261 0 2-1 4-3 5-4 1-3 1-6-1z m-540-3c0-1-1-3-1-5s55-72 123-157c103-130 123-154 127-154 4 0 5 1 5 5 0 3-38 52-122 158-120 151-126 158-132 153z m175-2c-2-2 9-26 57-132 32-72 60-131 62-132 4-3 8-2 10 2 0 2-26 62-59 133-61 136-63 138-70 129z m179-238c-29-8-45-37-37-66 3-12 16-26 29-32 42-20 87 22 72 65-9 25-38 40-64 33z m-76-78c-4-4-5-6-4-10 4-16 38-54 58-65l11-6v-37l-27-24c-16-13-29-26-30-28-5-9 2-19 13-19 2 0 18 12 36 28l33 28 19-19c33-30 42-37 47-37 7 0 13 7 13 14 0 5-4 9-26 29l-26 24 0 20v20l8 3c16 8 38 31 52 54 9 15 10 18 4 25-8 10-16 6-30-15-11-16-27-33-38-39-6-3-7-3-11 0-5 3-12 3-25 0-4-1-8 1-17 8-12 8-20 17-38 41-8 11-15 13-22 5z" horiz-adv-x="774.4" />

<glyph glyph-name="i-alerte" unicode="&#xe602;" d="M727 808c-13-4-26-13-32-21-3-3-11-16-18-28-7-12-13-22-14-22-38 8-45 9-67 9-36 0-67-7-96-23-40-22-62-45-139-146-56-73-53-71-117-106-123-68-182-111-198-144-14-29-5-49 47-98 68-66 144-125 257-198 97-63 316-155 368-155 12 0 27 7 36 17 23 26 34 85 40 201 4 94 5 105 11 120 2 8 15 36 27 61 54 112 65 138 71 174 10 61-7 117-51 169l-6 7 16 28c9 15 17 32 18 38 6 22-2 48-18 65-9 9-80 49-94 53-12 4-29 4-41-1z m69-59c38-22 44-27 44-41 0-7-2-13-12-31-7-12-13-22-13-23 0 0-9 5-19 12-11 7-23 15-28 17-5 3-15 9-22 14s-19 13-27 16c-8 4-14 8-15 8-1 1 21 37 25 42 3 3 8 6 11 6s6 2 7 2c5 1 17-4 49-22z m-552-695c0-9 8-35 17-52 9-20 31-44 48-53 26-13 64-17 101-9 33 7 34 5-10 27-62 30-113 60-142 82-14 11-14 11-14 5z" horiz-adv-x="1000" />

<glyph glyph-name="i-ancien-regime" unicode="&#xe603;" d="M481 804c-11-5-33-34-50-63-28-45-31-62-30-141 1-66 9-110 31-172 44-122 49-209 18-332-29-118-24-163 21-206l31-30 30 34c42 52 46 78 19 193-31 133-30 195 6 314 47 161 53 199 39 265-13 56-53 124-83 141-7 4-22 3-32-3z m-311-307c-58-35-80-118-49-179 31-60 131-77 179-30 44 44 13 102-50 93-38-5-42 2-13 28 31 28 104 24 133-6 44-47 62-134 30-146-22-8-22-63 0-63s21-14-6-66c-24-47-55-60-55-22 0 12-12 30-28 40-25 16-30 16-55 0-43-28-38-79 7-103 65-33 155 16 171 95 4 15 12 41 17 56 7 19 6 58-5 122-14 73-24 100-48 125-67 71-166 96-228 56z m502-3c-75-40-100-76-118-178-11-64-12-103-5-122 5-15 13-41 17-56 16-79 106-128 171-95 45 24 50 75 7 103-25 16-30 16-55 0-16-10-28-28-28-40 0-38-31-25-55 22-27 52-28 66-6 66 10 0 17 10 17 28 0 16-8 31-17 35-32 12-14 99 30 146 31 31 108 35 134 5 26-29 24-32-14-27-19 2-40-1-49-8-49-41-7-112 66-112 103 0 156 87 111 182-34 70-127 94-206 51z" horiz-adv-x="1000" />

<glyph glyph-name="i-annonce" unicode="&#xe604;" d="M767 711c-4-2-8-5-10-8-5-7-41-135-41-145 0-17 19-28 36-21 4 2 9 6 11 8 4 7 41 135 41 144 0 19-20 30-37 22z m-215-61c-5-2-7-5-9-10-1-6 8-29 113-278 72-172 116-272 118-274 11-9 28-1 28 12 0 9-226 546-231 549-7 5-12 5-19 1z m-249-270c-134-119-244-218-244-219-1-1 6-19 14-40l16-37h8c11 0 185 7 214 9l21 1v-32c0-34 2-42 11-50 10-9 16-10 83-10 68 0 76 1 87 9 12 9 14 16 13 55l0 36 18 1c11 1 61 3 113 5s94 4 94 5c1 0-135 326-193 464-5 10-9 19-10 19 0 0-111-97-245-216z m170 105c6-6 6-12 0-19-4-3-70-61-148-130-107-95-143-125-147-126-4 0-7 1-10 4-7 7-5 12 7 23 22 21 280 248 284 250 6 4 9 4 14-2z m24-453c-3-3-12-3-67-4-58 0-65 0-68 3s-4 7-4 34v30l71 3 70 3 1-33c0-27 0-33-3-36z m336 469c-34-13-64-26-67-28-13-7-14-28-2-40 11-11 14-10 88 19 37 14 69 28 71 30 12 11 10 31-3 39-12 9-19 7-87-20z m-6-143c-16-7-20-28-8-40 4-5 22-13 71-32 37-15 69-26 72-26 20 0 33 23 21 40-4 6-10 9-70 33-36 15-68 27-72 28-4 1-9 0-14-3z m-804-191c-10-7-9-13 12-63 18-42 20-47 26-49 12-6 25 1 25 14 0 8-34 90-40 97-5 5-17 6-23 1z" horiz-adv-x="1000" />

<glyph glyph-name="i-arbre" unicode="&#xe605;" d="M438 751c-31-13-71-65-71-91 0-14-8-21-24-21-13 0-40-17-61-38-29-29-38-47-38-79 0-22 5-49 10-60 9-15 5-23-20-38-65-38-86-142-42-208 51-77 150-97 221-44l31 24v-72c0-68-1-71-41-97-22-15-47-38-56-53l-16-24h305l-16 24c-9 15-34 38-57 53-40 25-41 29-41 93 0 36 4 63 9 61 63-33 100-43 133-38 100 16 162 117 126 210-6 15-26 40-43 58-27 25-33 37-24 51 6 11 10 38 10 60 0 32-9 50-37 79-22 21-48 38-62 38-15 0-23 7-23 22 0 12-13 38-30 56-33 37-99 53-143 34z" horiz-adv-x="1000" />

<glyph glyph-name="i-arbre-genea" unicode="&#xe606;" d="M602 611v-181h348v362h-348v-181z m330 132c0-17 0-31-1-31 0 0-14 14-31 31l-31 31h63v-31z m-450-279v-98h-48v-26l47-1 1-97 0-98h84v26h-64v366h64v26h-84v-98z m-432-118v-182h348v364h-348v-182z m330 133v-31l-31 29c-17 17-31 31-31 32 0 0 14 1 31 1h31v-31z m222-386v-181h348v362h-348v-181z m330 132c0-17 0-31-1-31 0 0-14 14-31 31l-31 31h63v-31z" horiz-adv-x="1000" />

<glyph glyph-name="i-archives-militaires" unicode="&#xe607;" d="M864 790c-8-2-39-9-68-16-99-23-305-72-340-81-32-8-37-9-44-7-9 3-10 4-19 32-11 33-12 33-67 22-84-17-166-35-177-38-18-6-26-13-31-29-2-7-5-21-7-32-2-10-4-19-4-21-1-3-27-17-60-33-6-2-8-8-5-13 3-5 8-51 10-94 2-47 5-148 8-280 3-175 10-257 23-293 3-10 5-12 9-12 5 0 5 1 6 9 0 5-1 16-3 23-4 13-4 26-4 148 0 74-1 136-2 139-1 5-3 6-13 8-7 1-13 3-13 4s4 15 10 30l12 28-4 39c-4 42-5 46-11 76-2 11-5 29-6 40-3 26-10 124-10 135v9l44 12c68 19 61 15 66 29l4 11 23 2c12 0 48 2 80 3l57 3 10 13 9 14h79l140 30c78 17 163 35 190 41 79 17 95 20 104 17 7-2 8-2 26 5 19 8 19 8 20 15 1 16-12 19-42 12z m-60-121c-22-6-47-14-56-18-20-9-25-10-66-17-32-6-51-11-79-21-8-3-35-8-63-13-59-10-64-11-101-26-38-15-48-17-82-21-46-5-73-11-110-24-19-6-47-13-69-16-12-1-10 3-16-47-2-20-8-68-12-107l-9-70 1-101c2-175 1-193-3-211-7-36-18-62-31-76l-9-9h11c5 0 12 1 15 2 10 4 186 51 481 130l287 76 9 9c13 12 18 24 21 52 11 92 23 213 25 266 2 41 4 59 13 94 3 10 3 17 1 53l-2 40-11 15c-21 25-38 41-47 46-7 3-14 4-33 4-24 1-25 1-65-10z m-183-192c6-2 16-6 22-9 14-7 33-26 41-42 4-7 13-19 21-28 17-18 25-30 34-49 9-19 13-35 13-53 0-8 1-17 1-20 1-3 8-8 21-16 21-13 22-14 19-26-2-6-28-24-57-39-44-22-81-33-158-49-83-16-120-20-157-16-44 5-78 21-87 41-5 11-4 18 5 34 9 16 12 19 36 39l19 16v21c0 47 15 80 53 118 25 26 55 45 70 45 3 0 6 1 6 3 3 4 20 15 34 22 25 11 43 13 64 8z" horiz-adv-x="1000" />

<glyph glyph-name="i-attention-plein" unicode="&#xe608;" d="M466 811c-32-4-46-6-66-10-68-15-141-49-195-93-8-6-24-20-36-32-40-39-68-78-93-129-23-46-37-92-44-144-4-23-4-97 0-120 12-87 47-168 101-234 17-20 51-55 72-71 64-51 144-86 230-99 31-5 105-5 136 0 53 8 99 22 145 45 52 26 90 54 130 95 69 71 112 158 127 257 5 32 5 102 0 134-15 99-58 186-127 257-73 76-167 123-273 140-19 3-92 6-107 4z m70-139c31-15 50-43 61-92 5-18 6-27 6-65 2-52-2-80-15-135-16-65-51-160-78-215l-7-13-10 21c-42 89-76 194-87 267-4 30-5 87-2 111 9 63 35 106 74 122 15 7 42 6 58-1z m0-549c16-8 27-18 33-32 5-9 5-14 5-25-1-7-3-16-5-21-6-11-18-23-32-30-11-6-14-6-34-6s-23 0-34 6c-14 7-26 19-32 30-2 5-4 14-5 21 0 11 0 16 5 25 11 25 37 39 69 38 14 0 19-1 30-6z" horiz-adv-x="1000" />

<glyph glyph-name="i-attention-vide" unicode="&#xe609;" d="M449 818c-42-4-94-17-134-33-159-65-268-204-294-373-5-32-5-102 0-134 13-86 47-164 100-229 144-178 394-230 599-125 136 70 230 201 253 354 5 32 5 102 0 134-8 51-21 95-44 141-81 165-251 269-436 267-14 0-34-1-44-2z m109-59c102-15 198-68 264-147 83-98 115-225 90-351-10-47-33-102-60-143-67-102-172-169-295-187-30-5-90-5-120 0-192 29-337 177-361 367-3 22-3 72 0 94 10 82 43 157 96 220 72 86 178 141 292 150 24 2 67 1 94-3z m-75-99c-23-5-46-26-59-51-23-44-29-112-17-185 12-67 42-157 81-242l9-18 5 9c9 18 31 72 43 102 43 117 56 200 44 279-4 21-13 50-20 63-20 33-54 51-86 43z m-8-519c-35-11-52-40-43-72 4-12 20-27 34-34 11-5 15-6 31-6s20 1 31 6c49 22 48 81-1 103-12 6-40 7-52 3z" horiz-adv-x="1000" />

<glyph glyph-name="i-avatar-femme" unicode="&#xe60a;" d="M470 847c-4-1-16-2-26-3-151-17-277-101-317-211-9-26-12-47-10-79 1-45 12-77 38-116 15-23 48-57 69-73l14-10-25-24c-66-63-104-136-120-228-6-31-5-104 1-136 2-13 4-24 5-24 0-1 3 9 7 22 12 45 37 101 61 137 40 59 89 104 145 132 16 8 34 16 37 16 0 0 3-6 7-13 31-64 151-104 340-113 76-4 121-13 155-31 38-19 62-65 64-121 1-19 1-28-2-39-8-36-30-57-62-58-17-1-24 2-33 16-11 18-9 31 5 38 7 3 7 4 4 6-5 4-9 4-16-1-12-7-14-26-5-46 2-5 6-11 9-14 15-17 48-18 77-4 47 24 70 103 59 197-13 106-66 204-146 272-12 10-21 18-21 19 0 1 6 5 12 10 19 14 48 44 62 63 58 82 59 175 3 259-12 18-50 57-70 72-56 41-126 68-204 80-25 4-99 7-117 5z m204-760c-9-3-30-16-30-19 0-3 1-2 10 2 15 8 31 11 51 9 10 0 23-2 29-4 6-2 11-2 12-2 1 1-20 11-31 14-14 4-29 4-41 0z m-404-3c-11-3-29-12-27-13 0-1 5 0 10 2s17 4 25 5c18 3 38-1 56-9 5-3 11-5 11-4 2 1-14 14-23 18-13 5-37 6-52 1z m407-52c-18-4-40-19-55-38-7-8-7-8-2-7 6 2 16 7 29 14l9 5-4-7c-8-15-4-36 9-46 6-5 24-10 26-8 1 0 0 3-2 5-2 2-4 7-4 10-1 6 0 8 4 14 7 8 19 9 27 0 3-3 6-5 7-4 3 3 1 20-5 31-5 10-5 11-2 11 7 0 21-8 32-20l11-11-2 8c-2 11-20 34-32 40-7 4-34 6-46 3z m-386-4c-15-5-30-15-42-29-6-6-11-13-11-13 0-2 11 2 18 6 8 5 22 12 23 12 1 0-1-3-3-6-8-11-7-29 2-41 6-7 19-13 28-13h8l-5 5c-7 6-7 17 0 24 4 5 6 6 13 6 7 0 9-1 14-7l6-7 1 8c2 9-2 23-8 32l-5 7 5-1c12-3 20-8 31-19s10-10 10-4c0 9-20 34-33 40-11 5-38 5-52 0z" horiz-adv-x="1000" />

<glyph glyph-name="i-avatar-h-f-01" unicode="&#xe60b;" d="M184 540c-49-6-89-24-113-51-17-18-17-15-17-97v-72h-16c-13 0-17-1-22-5-12-7-15-19-9-31 4-9 10-11 30-12l18-1 1-41 0-41 14-10c8-5 14-9 15-9s1 23 1 51v51h294v-102l30 20v82h15c23 0 32 5 36 20 1 8-3 18-10 24-5 3-8 4-23 4h-18v147l-6 9c-18 29-55 51-104 61-18 4-94 6-116 3z m599 0c-17-3-38-9-53-17-52-26-76-71-62-117 5-16 17-33 32-46l10-9-13-13c-29-30-43-66-43-110 0-12 1-24 2-28l1-7 5 14c10 32 25 56 46 76 16 14 44 30 46 25 1-5 14-18 23-23 21-12 56-20 107-23 52-3 70-11 80-34 13-30 3-62-20-62-12 0-18 12-11 20 4 4 2 5-4 3-2-1-3-4-3-9 0-11 9-20 18-20 30 0 46 37 38 86-5 34-21 65-46 90l-16 16 14 14c31 31 38 70 20 106-14 27-51 53-91 64-18 5-61 7-80 4z m-245-195v-21h-42v-30h42v-42h30v42h42v30h-42v42h-30v-21z m337-120c-4-2-10-6-14-9-6-6-4-8 4-3 4 3 4 3 3-5 0-6 1-8 5-12 7-5 13-6 9-1-3 4-1 11 5 11 2 0 5-1 7-2 3-3 3 1 0 9-3 7 1 7 8 0 7-7 8-3 2 5-3 3-8 7-12 8-8 2-7 2-17-1z m-150-3c-3-2-8-6-11-9-4-5-4-5-1-4 2 1 6 3 9 5 4 3 5 3 2-2-3-5-1-13 5-17 6-5 8-4 7 3-1 7 4 10 10 6 4-2 4-1 4 4 0 3-1 6-2 8-5 4 2 2 9-3 9-6 9-4 1 6-6 6-7 7-17 7-6 0-12-1-16-4z m-595-4c-10-6-19-17-13-15 2 1 6 3 8 4 6 4 7 4 5-2-3-9 5-21 14-21 4 0 4 1 2 4-6 8 5 15 12 9 4-4 5-4 4 3-1 4-2 9-3 11-2 5 4 4 11-3 9-8 8-1-1 9-6 7-8 7-19 7-9 0-13-1-20-6z m173 3c-8-4-18-14-16-16 0-1 4 1 8 3l7 4-2-5c-4-10 1-19 13-22 5-2 6-1 3 2-1 2-2 5-1 8 1 4 2 5 7 5 3 0 6-1 8-2 3-4 3 5-1 12-2 3-3 6-2 6 2 0 10-5 15-9 7-6 5 1-3 10-6 7-7 7-18 7-7 0-15-1-18-3z" horiz-adv-x="1000" />

<glyph glyph-name="i-avatar-h-f-02" unicode="&#xe60c;" d="M252 811c-64-8-106-26-136-58-19-21-18-15-18-108v-81l-19 0c-20-1-27-4-33-15-5-8-5-18 0-26 6-10 13-13 34-13h17l2-21c0-12 1-33 1-47v-25l16-11c8-5 16-10 17-10s1 25 1 57l0 56 326 1 0-57 1-57 17 11 16 11v92h17c20 0 29 3 34 11 9 12 7 26-3 36-6 6-7 6-27 7l-21 0v164l-5 9c-12 20-41 43-69 55-35 14-59 18-115 19-25 0-49 0-53 0z m131-355c-6-2-12-5-18-11-11-10-11-14 0-7 8 5 10 5 7 0-5-10 3-26 15-26 5 0 5 0 2 5-3 4-3 5 0 9 4 5 9 5 14 1 4-4 6 1 2 11-3 11 0 11 11 1s11-4 0 8c-10 10-18 12-33 9z m-196-3c-7-4-21-17-21-20 0-1 4 1 9 4l8 5-1-10c0-8 0-10 5-15 3-3 7-5 10-5 5 0 5 1 3 2-8 8 3 20 13 13 5-3 5-3 5 2 0 3-1 8-3 11-3 6-3 6 1 5 3-1 8-4 12-8 4-4 6-5 6-3 0 4-8 16-13 20-5 3-27 3-34-1z m490-67c-19-3-47-11-65-20-54-26-88-71-88-119 0-33 20-71 50-95l9-7-12-13c-44-42-66-104-59-164 3-28 4-29 9-11 13 45 41 88 74 112 11 9 37 23 41 23 1 0 4-4 7-9 17-29 72-47 166-53 64-4 86-15 99-48 7-16 7-43 0-56-5-11-13-17-24-19-6-1-9 0-14 4-8 7-10 17-4 21 5 4 5 6 0 6-5 0-8-4-8-12 0-22 20-32 41-22 11 5 18 13 24 26 13 30 11 78-6 124-10 28-23 48-46 71l-20 21 18 18c27 28 37 51 37 83 0 67-59 122-149 138-19 3-60 4-80 1z m-303-95v-23l-47-1v-32l47-1v-46h34v46h46v34h-46v46h-34v-23z m238-307c-8-2-18-9-24-17-5-6-3-6 6-1 3 2 6 4 7 4s0-4 0-9c-1-7-1-9 4-14 5-6 18-8 13-2-3 4-1 12 4 14 2 0 6-1 8-2 3-3 4-3 5 0 1 1 0 6-2 10-2 6-2 7 0 7 2 0 7-3 11-7 9-8 10-8 5 1-7 13-21 20-37 16z m182 0c-8-2-17-9-22-16-4-5-4-6-1-5 2 1 7 4 11 6l7 4-3-5c-4-7-2-14 4-20 3-3 8-6 10-6 4 0 4 1 2 2-3 4-3 9 1 13 4 4 8 4 12 0 5-6 7 2 2 12-4 7-4 7 1 6 3-1 7-5 11-8s7-6 7-4c0 4-12 19-17 21-6 2-18 2-25 0z" horiz-adv-x="1000" />

<glyph glyph-name="i-avatar-homme" unicode="&#xe60d;" d="M420 778c-143-13-249-65-299-147l-7-12v-315l-35 0c-32-1-35-1-45-7-37-18-40-67-5-89l10-7 37-1 37 0 2-47c0-25 1-65 1-88v-43l29-18c15-10 30-20 33-22l5-3-1 110c-1 60-1 109 0 110 0 0 144 1 318 1l317 1 1-109 1-110 33 22 32 21v177h35c30 0 35 1 43 4 25 11 37 39 29 63-4 13-12 23-25 30-11 6-12 6-46 7l-35 0-2 44c0 24-1 94-1 157v114l-8 13c-15 27-45 56-77 77-52 34-114 55-197 65-22 3-153 4-180 2z m266-621c-48-4-67-6-69-7-2-2-2-16 0-26l1-7 16 7c18 9 42 16 84 25 30 6 31 6 21 8-9 1-34 1-53 0z m-434-2c-2-1 10-4 26-7 38-8 70-17 87-25 8-4 14-6 15-6 0 0 1 7 1 14 2 20 2 20-37 23-35 2-87 3-92 1z m416-57c-4-1-13-4-19-7-10-6-33-27-37-35-2-4-2-4 5-1 5 2 9 4 11 5 8 5 22 12 22 11 0 0-2-4-4-8-11-21 3-45 28-50 5-1 8 0 9 1 1 1 0 2-1 2-4 0-8 12-7 18 4 16 26 19 34 4 3-5 3-5 4 3 2 9-1 23-7 31-5 8-5 8 4 6 9-3 21-11 29-21l7-8v6c0 7-16 30-26 37-10 8-32 10-52 6z m-373-3c-13-4-28-14-41-29-7-7-12-13-11-14 0 0 10 4 21 9l19 11-4-10c-3-5-5-11-5-15 0-7 6-21 11-25 6-5 18-10 25-10h7l-5 5c-11 11-3 29 13 29 6 0 9-1 13-6 5-4 6-5 7-3 3 7 1 19-5 30-4 8-5 11-3 11 7 0 18-7 29-17 12-11 12-12 12-6 0 8-21 35-31 39-10 5-39 5-52 1z" horiz-adv-x="1000" />

<glyph glyph-name="i-avatar-neutre" unicode="&#xe60e;" d="M449 697c-217-22-387-208-418-456-4-36-6-84-3-84 5 0 123 24 165 34 128 29 246 64 329 97 39 15 97 44 120 59 10 6 19 12 19 12 1 0 14-13 29-29 54-53 110-93 192-133 27-13 81-36 85-36 1 0 1 12 0 27-6 126-45 238-113 329-98 130-246 196-405 180z m222-512c-15-2-36-10-49-18-8-5-10-7-8-10 3-6 14-7 28-2 22 7 37 9 59 7 25-1 51-8 78-21l16-8-10 9c-34 32-76 48-114 43z m-420-2c-21-3-43-12-63-26-13-9-31-24-29-25 0-1 7 2 14 6s23 11 35 14c18 6 24 8 46 8 23 1 27 1 45-4 22-6 32-7 37-2s2 7-13 15c-22 12-50 17-72 14z m419-75c-20-7-35-18-51-37-10-13-11-15-3-11 3 2 7 3 8 3 1 0 7 4 14 8 16 11 19 10 13-1-3-6-5-13-5-18 0-21 20-41 41-41h7l-5 6c-12 14-3 34 16 34 6 0 10-1 14-5 3-3 5-6 5-7 0-2 1-2 2-1 6 6 1 32-9 46l-4 5 7-1c11-2 23-10 35-22l11-12v7c0 11-26 43-39 48-8 3-48 2-57-1z m-433-4c-13-5-18-9-30-18-11-9-29-32-24-30 2 1 7 2 10 4 3 1 10 4 14 7 10 7 21 12 21 11 0-1-2-4-4-7-4-5-5-9-5-21 0-12 1-15 5-22 7-10 23-19 35-19h7l-5 6c-12 14-3 34 15 34 7 0 10-1 15-7 8-7 9-6 9 9 0 7-2 13-7 23l-7 13 6-1c11-3 23-10 34-22l13-13-2 8c0 5-4 12-11 21-19 26-24 29-55 29-18 0-24-1-34-5z" horiz-adv-x="1000" />

<glyph glyph-name="i-avatar-neutre-plus" unicode="&#xe60f;" d="M356 837c-21-3-52-10-70-16-133-46-223-181-231-346-1-14-1-25-1-25 1 0 22 4 46 9 178 36 329 85 392 127l13 9 23-23c35-36 78-66 131-92 21-10 58-26 61-26 3 0 2 30-1 55-18 139-92 250-200 300-41 19-75 27-123 28-18 0-36 0-40 0z m154-367c-12-2-41-15-39-19 1-5 7-6 25-1 25 6 44 6 66-1 9-3 21-8 26-10 12-8 12-5-1 6-25 20-51 28-77 25z m-305-3c-6-2-16-6-22-9-13-6-36-24-34-25 0-1 5 1 10 4 15 8 39 15 53 16 11 1 18 0 33-3 11-3 22-4 24-4 7 1 7 5 2 9-15 12-46 18-66 12z m306-52c-11-3-26-14-36-26-4-5-7-9-7-10 0-1 13 5 22 11 9 6 10 5 7-3-8-19 5-41 25-41 7 0 7 0 3 4-2 2-4 7-4 10 0 14 18 20 27 9l4-6 0 6c1 11 0 16-4 24-3 4-4 8-3 8 2 2 22-10 28-18l8-8-2 7c-1 9-17 29-26 33-8 4-30 4-42 0z m-305-2c-4-1-11-4-15-7-7-4-28-26-26-27 1-1 19 7 26 12 6 5 7 4 3-3-8-14-3-32 12-39 5-3 11-5 14-5 4 0 4 0 2 4-8 8-6 20 3 24 8 3 11 3 16-3 3-3 6-5 6-5 1 0 1 4 1 10 0 6-2 12-5 18-3 4-4 8-3 8 6 0 20-9 28-17l9-10-2 7c-1 8-15 27-24 32-7 5-34 5-45 1z m492-186v-81h-162v-114h162v-162h114v162h164v114h-164v162h-114v-81z" horiz-adv-x="1000" />

<glyph glyph-name="i-berceau" unicode="&#xe610;" d="M578 643v-171h191c181 0 191 0 190 4 0 1-2 9-4 15-10 41-32 91-56 127-64 97-171 166-296 192-11 2-22 4-23 4-1 0-2-49-2-171z m-537-16c-7-3-13-12-13-19 0-12 12-22 26-22 10 0 30-6 46-14 11-5 19-11 31-23 22-22 32-41 43-89 1-5 4-11 7-13 10-11 33-4 36 11 1 7-5 34-13 56-16 44-46 78-88 98-28 13-63 20-75 15z m118-237c5-57 28-106 70-155l16-17 9 11c19 21 48 39 77 47 13 4 21 5 44 5 33 0 45-3 72-16 54-27 87-79 87-140v-23l12-1c6-1 18-1 27 0l14 1v23c0 27 4 44 16 68 16 32 39 56 72 72 23 12 37 15 64 16 48 3 90-14 123-48l14-13 12 14c38 43 63 93 70 141 1 8 2 18 2 22v7h-802l1-14z m192-158c-55-9-101-54-110-109-10-57 19-114 72-140 41-20 82-20 122 0 33 16 57 44 68 78 5 13 6 20 6 39 0 20-1 25-6 41-21 63-86 102-152 91z m37-62c16-4 28-10 39-22 14-15 18-25 18-47 0-16-1-19-6-29-7-16-19-27-35-35-11-5-15-6-30-6-14 0-19 1-29 6-15 7-31 22-37 36-17 40 7 86 49 96 13 3 18 3 31 1z m345 61c-8-2-22-7-32-12-79-38-100-141-41-206 73-79 206-48 233 55 4 16 5 47 1 62-11 46-46 83-91 97-21 7-50 8-70 4z m56-65c31-12 51-49 42-82-5-21-19-38-41-48-14-6-38-7-53-1-49 18-63 79-27 115 21 21 50 27 79 16z" horiz-adv-x="1000" />

<glyph glyph-name="i-bonnet-marianne" unicode="&#xe611;" d="M215 837c-49-6-78-12-94-20-20-11-39-40-43-66-4-22-2-27 42-76 11-13 24-28 29-32l8-9-6-6c-11-12-49-27-110-46-19-6-34-11-34-11-2-1 91-162 118-205 28-43 32-57 32-108 0-56-10-108-41-234-11-43-21-85-21-93-3-36 13-58 49-66 16-4 41-3 55 1 10 3 45 37 84 81 34 37 39 42 66 60 76 51 188 82 312 87l34 1 2 22c3 36 2 192-1 225-12 143-41 241-92 316-45 68-97 106-197 147-50 20-75 26-115 31-18 2-63 2-77 1z m189-154c8-4 20-13 27-19 11-11 11-11 13-26 2-14 4-45 4-67 0-11-4-18-10-19-3-1-5-3-6-7-2-8-17-22-31-29l-9-5v-11c0-17 3-27 18-57 8-15 16-35 18-44 5-14 5-16 2-30-4-21-5-38-2-42 1-4 1-5-4-10-5-5-6-5-8-2-3 4-2 22 4 51 4 19 5 23 2 31-2 11-10 27-21 46-5 8-8 18-11 33-2 11-4 21-5 21 0 1-4 0-8 0l-7-2 1-9c3-20 13-44 32-80 11-20 11-25 4-48-4-11-6-22-6-31 0-13-1-15-3-15-8 0-8 16-1 36 8 24 7 30-13 65-16 27-26 50-26 58l0 6-3-5c-2-3-4-10-5-15-2-10-2-11 5-26 3-8 11-22 17-30s10-19 11-23c1-4 0-16-3-30-2-13-4-27-4-31 0-4-2-10-3-12-3-4-3-2-2 16 0 11 3 26 5 35s4 16 3 19c0 2-4 9-9 14-9 12-17 28-22 43l-3 10-2-25c-1-27-5-48-15-74-2-7-5-18-6-24-1-20-10-23-10-4 0 14 5 30 14 52 9 18 9 18 10 49 2 32 6 54 14 70 2 4 4 8 4 9s-3 1-8 1c-7 0-8 0-13-11-8-19-11-33-11-49 0-20-5-40-13-60-6-14-11-34-14-60-1-6-2-10-5-11-3-3-4-2-5 6-2 16 2 40 12 67 10 25 10 25 11 56 1 33 2 36 13 53l7 11-7 3c-10 4-11 4-11-1 0-2-4-11-8-19l-9-16 0-31c0-33-3-46-13-60-6-8-8-20-8-45 0-22 0-22-5-25-7-3-7-3-7 8 0 16 6 39 16 64l9 23-1 28c0 30 3 47 10 57 3 5 6 13 9 24 1 5 0 6-7 8-6 1-9 4-11 8-2 4-7 10-11 15-4 4-11 16-16 25-8 17-8 17-7 33 1 19 4 28 15 40 4 5 10 14 13 20 4 9 6 11 18 16 7 3 15 8 19 12 6 6 8 7 16 6 5-1 12 0 15 1 3 1 14 1 24 1 16-1 19-2 33-10z m-70-27c-2 0-7-4-11-8s-15-12-23-18l-14-11 1-10c1-5 2-14 2-19 0-10 17-45 22-47 2 0 6-1 8-1 6 0 12-3 19-10 6-4 6-5 22-2 13 1 17 3 22 7 3 2 9 6 14 7 4 1 10 3 12 5 4 4 8 16 8 25 0 3 2 10 4 14l4 8-6 16c-3 8-6 17-7 20-1 4-3 6-6 7-3 0-8 4-12 7-6 5-7 6-23 6-11-1-20 1-25 2-4 2-9 3-11 2z m35-27c6-2 10-5 12-9 2-3 5-7 8-9 3-4 3-5 0-20-2-8-6-18-8-20-4-5-6-6-16-6-7 0-15-2-18-3-6-3-7-2-11 1-2 2-4 6-5 9-1 4-3 6-7 7-4 1-7 3-7 4-1 1 1 10 4 19 5 14 7 17 11 17 2 1 8 4 11 7 8 7 12 7 26 3z" horiz-adv-x="719.7" />

<glyph glyph-name="i-boutique" unicode="&#xe612;" d="M92 612l1-203 5-9c18-37 65-47 96-19 4 4 10 12 13 19l6 11 1 202 0 201h-122l0-202z m242 0l1-203 5-10c20-38 68-46 97-17 5 5 11 13 13 19l5 10 1 202 0 201h-122l0-202z m242 1l1-202 5-10c17-38 67-48 97-19 4 4 10 12 13 17l5 10 1 203 0 202h-122l0-201z m242 6c0-134 1-198 2-205 6-29 29-49 59-49 24 0 45 13 55 35l5 9 1 203 0 202h-122v-195z m-726-506v-241h522v482h-50v-292h-440v292h-32v-241z m788 0v-241h48v482h-48v-241z m-231 43c-9-5-11-9-11-16 2-18 38-24 53-9 4 4 7 8 7 10 0 6-6 13-13 16-10 4-29 4-36-1z" horiz-adv-x="1000" />

<glyph glyph-name="i-bulle-3points" unicode="&#xe613;" d="M464 835c-4-1-16-2-26-3-168-19-317-116-382-250-85-172-23-369 150-482l19-13-17-35c-66-137-87-184-83-187 1-2 15 6 88 51 76 47 118 72 155 93l28 15 16-3c46-8 127-9 172-2 146 23 270 96 342 203 82 122 85 270 9 394-70 113-197 191-347 214-26 4-105 7-124 5z m-134-372c13-4 27-18 34-32 7-14 7-39 1-53-7-14-19-27-34-33-10-5-14-6-28-6-19 0-31 5-44 17-26 24-28 64-6 90 19 21 48 28 77 17z m188 1c23-10 38-31 40-56 4-71-94-95-126-31-7 14-7 39-1 53 15 33 55 48 87 34z m185-1c41-20 49-75 15-106-14-13-29-18-48-17-43 3-71 42-60 83 5 19 23 38 42 44 14 5 37 3 51-4z" horiz-adv-x="1000" />

<glyph glyph-name="i-cadenas" unicode="&#xe614;" d="M437 817c-82-14-152-72-178-150-12-33-12-31-12-153l-1-114h-45c-54 0-61-1-75-16-6-6-11-13-14-21-4-11-4-11-4-224s0-213 4-224c3-8 8-15 14-21 17-17-14-16 357-16s340-1 357 16c6 6 11 13 14 21 4 11 4 11 4 224s0 213-4 224c-3 8-8 15-14 21-15 15-21 16-83 16h-53v104c0 81-1 107-3 123-17 112-115 194-229 193-10 0-26-2-35-3z m62-116c39-8 74-41 84-80 2-10 3-29 3-116v-105h-222v106c0 116 0 114 13 139 8 16 30 38 47 47 25 12 49 15 75 9z m11-467c34-14 50-55 35-87-6-13-12-20-24-29l-7-6 0-36c0-42-1-47-14-56-10-6-27-5-35 2-10 10-11 13-11 53v37l-5 3c-10 5-23 19-28 31-7 17-7 37 0 54 8 18 23 31 42 37 12 4 36 3 47-3z" horiz-adv-x="1000" />

<glyph glyph-name="i-calendrier-15" unicode="&#xe615;" d="M683 813c-19-6-32-17-41-33-7-13-7-14-8-38l0-26h-280v13c0 18-3 38-8 47-6 13-19 25-31 31-11 5-14 6-30 6-15 0-20-1-29-5-15-7-27-19-34-34-4-10-5-14-6-35l0-25h-43c-30 0-46-1-55-3-40-9-73-45-80-85-2-10-2-89 0-332 1-280 2-320 5-328 11-34 34-59 66-71 14-6 15-6 62-6 26-1 190 0 364 1 284 1 317 2 328 5 32 9 60 34 72 66 6 14 6 14 6 72 1 32 0 179-1 327-1 267-1 269-6 282-10 33-37 60-70 70-11 4-19 5-53 6l-41 0 0 25c-1 20-2 26-6 33-11 24-33 38-59 39-8 1-17 0-22-2z m-49-164c1-15 2-20 7-30 21-42 77-51 110-18 12 12 17 25 20 47l2 20h17l0-31c-1-36-4-46-18-64-40-53-120-44-149 16-6 14-6 15-7 47l0 32h17l1-19z m-418-1c1-15 3-20 8-31 20-42 76-51 110-17 12 12 18 26 19 48l2 18h17v-27c0-41-5-57-26-77-46-46-125-27-144 36-3 10-4 18-4 40v28h17l1-18z m666-175l6-1v-253l-5-13c-14-35-38-73-64-102-44-48-110-88-175-105l-19-5-525-2 0 239c-1 131-1 238-1 238 0 1 161 2 358 3 197 1 372 1 388 2s33-1 37-1z m7-460c-1-4-4-9-7-12l-6-5h-155l16 7c38 18 70 40 98 69 21 22 33 38 45 61l9 16 1-65c0-36 0-68-1-71z m-527 344c-20-10-32-17-32-19 0-2 2-12 4-22l5-20 22 12c12 7 23 12 24 12 0 0 1-50 2-112l1-112h56v45c0 24-1 87-1 139l-2 94h-24l-24 0-31-17z m171 9c-2-16-13-121-13-125 0-4 1-5 21-5 23-1 35-6 47-17 16-16 15-52-2-68-12-12-36-14-58-7-7 2-13 4-13 3-1 0-3-10-5-21-3-17-4-21-2-22 12-8 51-12 71-8 25 4 48 20 61 40 10 16 15 33 15 55 0 43-18 70-55 81-7 2-16 4-21 4-6 0-9 1-9 3 0 1 1 11 3 23s3 22 3 23c0 0 17 1 37 1h37v48h-116l-1-8z" horiz-adv-x="1000" />

<glyph glyph-name="i-calepin" unicode="&#xe616;" d="M468 830c-7-1-17-5-22-8-11-7-27-23-31-33l-4-7-36 0c-40-1-50-4-71-17l-11-7-41-1c-44-1-53-2-74-12-15-8-38-31-46-46-13-26-12-5-12-374l1-336 5-14c14-34 43-60 78-68 19-4 553-4 572 0 35 8 64 34 78 68l5 14 1 336c0 369 1 348-12 374-8 15-31 38-46 46-21 10-30 11-74 12l-41 1-11 7c-20 13-32 15-67 17l-32 1-5 8c-18 34-62 50-104 39z m47-32c11-5 20-15 29-33l7-15h38c44 0 53-2 69-14 33-27 27-80-12-99l-11-6-144-1c-144 0-145 0-156 4-15 6-31 21-36 35-10 30 4 62 33 76 8 4 13 4 56 5l48 0 6 16c7 18 17 29 29 33 12 4 34 4 44-1z m-257-117c0-42 29-80 71-94 14-4 14-4 161-4s147 0 161 4c42 14 71 52 71 94v11l21 0c19-1 21-2 30-7 7-4 11-9 15-17l6-10v-325c0-238-1-328-2-333-3-11-13-22-23-26-8-4-20-4-279-4s-271 0-279 4c-10 4-20 16-23 27-2 6-2 96-2 334l1 326 6 10c4 7 9 11 17 15 9 5 13 6 29 6h19v-11z m225 97c-18-11-17-42 1-51 8-4 14-4 22 1 17 11 16 41-2 50-9 5-13 5-21 0z m162-335c-4-2-49-40-101-85s-95-81-95-81c-1 1-25 19-54 42-30 23-56 44-60 46-11 6-26 3-35-8-5-7-5-22 0-29 3-5 147-120 150-120 3 0 227 192 230 198 5 7 5 22 0 29-9 11-24 14-35 8z" horiz-adv-x="1000" />

<glyph glyph-name="i-carte-identite" unicode="&#xe617;" d="M315 784c-257-68-239-63-247-69-8-7-14-19-14-29 0-10 209-797 214-806 7-12 21-20 34-20 3 0 122 31 263 68 142 37 280 73 307 80 27 7 51 13 54 14 11 5 22 21 22 33 0 8-61 244-126 489l-51 192-116 52c-64 29-117 53-119 53s-101-25-221-57z m228 27c1-2 11-26 21-54 10-27 19-52 21-54 6-10 15-13 30-12 11 0 23 4 59 18 25 9 47 17 50 18 12 3 21-14 13-22-2-1-26-11-54-21-44-16-52-19-66-20-24-1-42 7-54 23-5 8-43 110-43 116 0 9 16 14 23 8z m-253-174c5-4 11-10 15-16 5-8 6-12 6-24 0-8-1-16-2-18-1-4 0-5 7-8 11-5 27-18 39-34 6-8 11-14 10-15-2-1-138-36-139-35-5 3 0 32 9 53l6 12-9 8c-27 25-19 68 16 81 11 5 30 3 42-4z" horiz-adv-x="1000" />

<glyph glyph-name="i-casque" unicode="&#xe618;" d="M367 748c-139-33-246-133-283-260-16-57-21-128-7-112 4 4 18 36 31 70 49 134 124 190 281 209 158 19 311-13 379-77 36-35 68-92 90-157 22-70 39-55 25 20-42 229-272 366-516 307z m-210-397c-5-11-10-78-10-152 0-107 3-135 16-147 17-18 46-20 73-6 17 10 19 23 19 155 0 100-4 149-12 157-19 20-74 15-86-7z m571 7c-8-8-12-58-12-162v-151l-41-18c-51-24-71-25-87-5-10 10-35 14-109 14-84 0-100-3-116-19-24-24-24-29-4-57 14-20 22-22 118-22 90 0 103 2 118 20 10 11 37 26 63 34 25 9 52 23 58 31 7 6 26 13 45 13 57 0 63 15 63 163 0 74-5 141-10 152-12 22-67 27-86 7z m-673-37c-48-58-46-188 4-238 54-54 59-44 59 120 0 138-1 147-19 147-11 0-30-14-44-29z m798-118c0-164 5-174 59-120 32 33 45 95 35 164-8 50-47 103-75 103-18 0-19-9-19-147z" horiz-adv-x="1000" />

<glyph glyph-name="i-cheque" unicode="&#xe619;" d="M864 693c-10-5-184-179-184-184 0-6 4-9 10-9 4 0 23 18 93 88 78 78 89 88 94 88s15-7 15-10c0-1-43-44-96-96-54-52-97-95-98-96 0-2 13-16 30-33 18-18 30-31 29-33-1-1 2-2 7-2 139-2 179-4 185-7 8-4 17-14 18-21 1-2 1-78-1-168-2-161-2-163-7-172-5-10-11-16-21-18-5-1-617 8-843 12-33 1-35 1-42 6-5 3-10 9-12 13-3 8-4 15-1 170 1 89 3 165 3 168 2 10 8 18 18 23l8 5 279-5c153-2 279-5 279-5 1 0-20-21-45-46l-46-46-221 3c-138 2-221 3-223 2-6-3-5-14 0-16 4-1 368-8 423-8h7l-9-12c-5-6-17-21-26-33l-16-21-11 1c-6 0-91 2-189 3-146 2-179 2-182 0-4-3-4-11 0-14 2-1 57-3 179-5 97-2 180-3 183-3h7l-11-17c-12-18-21-37-21-44 0-4-1-4-22-4-71 2-311 5-314 4-5-2-7-8-4-13 1-3 5-4 14-5 7 0 137-3 290-5 199-3 277-3 280-2 6 3 5 12-2 15-3 2-16 3-39 3-19 0-68 1-110 1l-77 2 15 7c15 8 40 24 69 45l16 11 64 0c52-1 64 0 67 2 4 3 4 9-1 13-3 3-9 3-42 3-22 0-44 1-50 2l-11 1 23 18c13 10 29 25 36 32l13 13h15c12 0 17 1 19 3 6 6 3 13-7 15l-6 1 45 45c25 24 45 45 45 46 0 0-14 15-31 32l-31 31-20-20-21-21-288 5c-193 3-291 4-297 3-17-4-29-15-36-31-5-10-5-12-7-165-2-85-3-162-2-171 1-24 11-40 32-49 9-4 14-4 439-11 236-4 435-7 442-6 16 1 27 6 37 17 14 16 13 7 16 179 2 86 3 163 2 172 0 19-6 30-18 41-14 11-20 12-111 13l-82 2 91 90c51 49 94 93 97 96 3 4 7 12 8 17 3 14 0 24-12 37-14 15-29 20-44 15-6-2-7-2-14 5-13 12-25 14-38 8z m-130-329c-1-3-6-299-5-300 1-1 192-4 193-3 1 1 6 299 5 300 0 1-193 4-193 3z" horiz-adv-x="1000" />

<glyph glyph-name="i-colonie" unicode="&#xe61a;" d="M464 673c-6-5-26-14-45-20-57-17-108-46-145-83-38-37-80-118-80-152 0-18-7-25-46-45-25-13-56-34-71-45l-26-22 38-6c172-24 334-100 485-229l27-22 46 11c167 44 314 156 314 240 0 28-49 76-107 107-47 24-51 28-61 63-21 70-125 157-219 182-19 6-41 14-50 21-19 13-46 13-60 0z m-445-427c-31-120 161-207 454-206l74 1-31 27c-111 98-285 173-448 193-43 5-44 5-49-15z" horiz-adv-x="1000" />

<glyph glyph-name="i-crayon" unicode="&#xe61b;" d="M469 598c-134-130-259-251-278-269l-33-33h59l258 238c142 131 263 243 269 248l11 10-42 42-244-236z m64-104c-151-145-275-265-275-266 0 0 22-22 49-47l50-45 24 24c13 13 136 134 272 268 136 135 248 246 248 247 1 2-87 81-91 83-1 0-125-119-277-264z m148-128l-267-267 1-46 259 249c142 137 270 259 282 272l24 23-13 15c-8 8-15 16-16 18-2 2-54-49-270-264z m-560-164c0 0-11-36-23-78l-21-76 12-10c6-5 35-27 64-49l52-40 75 21c42 11 76 21 76 22 0 1-5 21-10 43l-11 41-16 14c-10 8-19 14-21 14-1 0-17 2-35 5l-32 4-7 28-8 27-13 15c-22 23-17 21-51 21-16 0-30-1-31-2z m-89-253v-41h89l-7 7c-4 3-21 19-38 35s-34 31-37 35l-7 6v-42z m423-23l-28-18h220c120 0 219 0 219 1s-9 8-20 18l-20 17-343 0-28-18z" horiz-adv-x="1000" />

<glyph glyph-name="i-crayon-02" unicode="&#xe61c;" d="M800 804c-4-2-14-10-29-24l-21-21 163-159 20 19c11 11 21 24 23 28 5 10 5 24 0 34-5 11-113 116-125 121-9 4-20 5-31 2z m-386-382l-307-309 51-49c28-28 65-63 82-80l31-29 306 308c169 169 307 308 307 309-1 2-161 158-162 158-1 0-139-139-308-308z m-334-335l-13-13 2-32c0-17 2-53 2-80l2-48 157 1 13 13c7 7 13 13 13 14 0 2-159 157-162 158-1 0-7-6-14-13z" horiz-adv-x="1000" />

<glyph glyph-name="i-divers" unicode="&#xe61d;" d="M318 829c-158-22-278-153-285-312-7-142 80-274 215-324 98-36 210-23 298 35 10 7 19 12 19 12 0-1 3-10 7-20 28-85 119-201 211-271 73-56 140-81 151-58 13 29-31 135-88 213-62 86-158 169-220 191-3 1-2 4 11 23 36 53 54 108 56 173 4 93-30 178-96 244-27 27-52 45-86 62-61 30-127 41-193 32z m82-74c55-8 102-31 141-69 114-110 103-292-23-387-32-24-72-41-111-48-23-4-65-4-88 0-148 26-242 173-204 317 33 125 158 206 285 187z m-50-102c-11-6-12-10-12-71v-56h-55c-64 0-67-1-74-15-5-10-2-21 8-27 6-4 10-4 63-4h58l0-59 1-59 6-6c7-8 16-9 25-5 14 6 14 8 14 72v57h58c53 0 57 0 63 4 5 3 8 6 9 12 2 8 2 9-1 16-7 13-11 14-73 14h-56v56c0 62-1 65-12 71-7 4-15 4-22 0z" horiz-adv-x="1000" />

<glyph glyph-name="i-doc-arbre" unicode="&#xe61e;" d="M129 830c-17-4-35-18-44-33l-4-8v-870l4-8c7-12 18-22 32-28l12-6h758l12 6c14 6 25 16 32 28l4 8 1 594-313 319-243 0c-134 0-246-1-251-2z m429-184l1-129 5-8c7-14 15-22 28-29l13-6h279v-251c0-245 0-251-4-259-2-4-8-11-13-16-18-15 11-14-359-14s-341-1-359 14c-5 5-11 12-13 16-4 8-4 15-4 390s0 382 4 390c5 10 20 23 31 27 7 2 36 3 199 3l192 0 0-128z m186-30l88-90h-107c-94 0-107 0-110 3s-3 16-3 112v108l22-22c12-12 62-62 110-111z m-391-182c-27-4-53-30-53-54 0-6-3-8-12-8-8 0-29-11-36-19-12-14-15-22-15-41 0-15 1-19 6-28 3-6 5-11 5-11-1 0-5-2-10-5-12-6-25-20-33-36-5-12-6-15-6-32s1-20 6-32c23-49 89-62 128-26 4 4 9 8 10 8 0 0 1-17 1-37 0-34 0-37-3-38-23-8-44-24-53-40l-4-8 48-2c59-1 104-1 104 0 0 1-2 5-4 10-7 12-24 28-39 34l-13 6v35c0 20 1 36 1 36 1 0 5-3 9-6 10-9 25-16 40-18 35-4 70 14 85 45 5 11 6 14 6 33 0 19-1 22-5 32-8 14-18 26-30 34l-10 6 7 12c5 11 6 15 6 28 0 18-6 31-19 44-8 8-26 16-34 16-7 0-10 2-10 7 0 9-8 27-17 36-15 15-34 22-56 19z" horiz-adv-x="1000" />

<glyph glyph-name="i-document" unicode="&#xe61f;" d="M145 816c-21-7-37-22-41-38-1-5-2-152-2-431l1-424 5-9c7-12 16-19 30-26l11-5h730l11 5c14 7 23 14 30 26l5 9 1 584-301 313h-235c-221 0-236 0-245-4z m417-178l1-127 5-8c6-13 14-22 26-28l11-6 271-1v-246c0-239 0-246-4-254-5-10-17-21-29-25-10-4-21-4-329-4s-319 0-329 4c-12 5-25 16-29 26-4 8-4 24-4 382 0 412-1 380 13 395 7 7 14 11 26 15 6 2 49 3 189 3l182 0 0-126z m160-10l104-107-104-1c-95 0-103 0-105 3-4 5-4 214-1 213 1-1 49-49 106-108z m-461-278c-15-3-24-15-24-29 0-12 6-21 17-26l9-5h484l9 5c24 12 20 47-7 55-9 2-478 3-488 0z m-9-128c-11-8-14-14-14-26s3-18 14-25l7-5h246c242 0 246 0 253 4 20 12 19 41-2 52-7 4-17 4-252 4h-245l-7-4z m9-116c-15-3-24-15-24-29 0-12 6-21 17-26l9-5h484l9 5c24 12 20 47-7 55-9 2-478 3-488 0z" horiz-adv-x="1000" />

<glyph glyph-name="i-dossier" unicode="&#xe620;" d="M897 821c-238-56-404-96-448-107-26-7-32-8-38-6-5 1-9 3-11 4-1 2-5 13-9 26-9 29-14 34-30 34-9 0-48-7-150-29-83-17-92-20-102-31-5-6-12-24-15-42-1-7-3-18-4-23l-2-10-19-10c-10-6-24-13-31-16-20-8-21-10-17-24 8-33 13-132 17-345 4-200 9-283 20-335 4-19 9-30 15-31 6-1 7 9 4 28-3 15-4 36-5 165-1 116-2 147-4 149-1 1-8 2-15 4-7 1-13 3-13 3 0 0 6 14 13 31l12 31-4 44c-3 24-7 55-10 68-6 29-9 61-15 141-3 42-4 59-2 60 1 1 26 8 56 16l54 15 4 11c3 7 5 12 6 13 0 0 36 2 78 4s80 4 83 4c5 1 9 4 17 15l10 14h84l153 33c85 18 170 36 189 41 47 10 96 20 104 20 3 0 8-1 10-2 3-2 7-1 24 5 12 5 21 9 22 12 3 5 1 14-5 18-4 3-17 4-26 2z m-38-121c-3-1-22-6-42-11-20-5-44-13-54-17-22-9-34-12-68-18-31-5-51-10-76-19-21-7-36-11-83-18-46-7-62-11-96-25-41-16-53-19-94-24-42-5-72-11-110-24-18-6-40-11-56-14-15-3-27-5-27-5-1 0-7-51-14-113l-14-113 1-157c0-140 0-159-3-175-7-38-20-70-34-84l-9-9h9c5 0 30 6 56 13 65 18 239 65 495 133 120 32 232 62 248 66 26 7 29 8 37 16 17 17 18 21 28 110 12 111 19 183 20 223 1 37 4 61 12 92 6 21 6 26 2 89l-1 18-17 20c-23 27-38 41-47 44-9 3-55 4-63 2z" horiz-adv-x="1000" />

<glyph glyph-name="i-dossier-images" unicode="&#xe621;" d="M813 730c-149-36-284-68-322-77-44-11-55-13-62-7-2 1-6 11-9 22s-8 22-10 24c-7 9-10 9-155-22-64-14-73-18-80-31-2-4-6-19-9-33l-5-26-28-14c-16-8-30-15-30-17s0-5 1-8c6-15 11-102 14-236 1-40 2-74 2-74 1-1 6 11 12 25l10 25-3 35c-2 19-5 46-8 59-3 13-6 37-8 52-4 38-9 121-8 122 0 1 22 7 87 25 7 2 8 3 11 12 2 6 5 11 6 11 1 0 24 2 51 3 27 1 59 3 70 3l22 2 7 11 8 12h71l138 30c77 16 155 33 175 38 54 12 71 14 78 12 5-2 8-1 23 4 16 7 17 8 18 14 1 9-4 14-16 14-5 0-28-5-51-10z m-19-101c-19-5-45-13-57-18-17-7-31-10-52-14-35-6-48-9-70-17-11-4-32-9-63-14-53-9-61-11-90-23-32-13-46-17-77-20-34-4-66-11-95-21-13-4-34-10-48-12s-25-4-25-5c-1 0-21-175-23-199-2-16-2-57-1-132 1-60 2-118 1-129-3-34-16-72-31-89l-7-8h7c4 0 28 6 54 13 58 16 232 63 468 126l184 49 7 7c16 16 17 18 29 135 9 92 13 135 13 159 0 23 2 37 9 67 5 20 5 23 4 57l-2 37-8 9c-4 6-14 17-22 26-17 20-25 23-51 24-18 1-22 0-54-8z m-108-154c7-5 17-13 22-19l8-9 24 5c14 2 30 4 35 4 19 0 34-11 39-29 1-6 1-18 0-43-1-19-4-68-6-108-3-49-5-76-7-82-6-17-21-34-39-45-12-6-409-105-425-105-5 0-13 1-18 2-10 3-24 16-27 26-2 5-2 33 0 121 1 63 3 118 4 124 4 21 22 43 45 54 7 4 15 7 17 7s6 3 8 6c8 11 18 15 42 20 26 5 36 4 43-2 5-4 5-5 20-2l14 2 9 13c10 15 30 37 41 45 7 5 15 7 61 16 66 12 70 12 90-1z m-75-75c-48-5-98-34-130-77-12-15-26-44-30-61-4-16-4-44 0-57 12-45 55-74 107-70 62 4 123 46 152 103 13 25 17 42 17 65 0 15-1 23-5 33-15 45-57 69-111 64z m40-30c70-25 67-122-7-179-25-19-51-29-79-31-27-1-44 4-62 17-9 7-20 24-24 36-6 22-2 54 10 78l4 8 2-9c6-19 19-31 38-34 38-7 72 30 55 60-8 14-25 22-48 23l-12 0 7 6c13 12 40 24 63 29 13 3 40 1 53-4z m-277-46c-17-9-27-28-21-40 6-16 22-20 40-11 25 12 31 43 12 53-7 3-23 2-31-2z m-254-124c0-80 7-190 14-232 5-26 9-37 15-37 5 0 6 12 2 30-3 11-3 32-3 129 0 63-1 119-2 124-1 9-2 10-18 13l-8 1v-28z" horiz-adv-x="1000" />

<glyph glyph-name="i-dossier-presse" unicode="&#xe622;" d="M813 730c-149-36-284-68-322-77-44-11-55-13-62-7-2 1-6 11-9 22s-8 22-10 24c-7 9-10 9-155-22-64-14-73-18-80-31-2-4-6-19-9-33l-5-26-28-14c-16-8-30-15-30-17s0-5 1-8c6-15 11-102 14-236 1-40 2-74 2-74 1-1 6 11 12 25l10 25-3 35c-2 19-5 46-8 59-3 13-6 37-8 52-4 38-9 121-8 122 0 1 22 7 87 25 7 2 8 3 11 12 2 6 5 11 6 11 1 0 24 2 51 3 27 1 59 3 70 3l22 2 7 11 8 12h71l138 30c77 16 155 33 175 38 54 12 71 14 78 12 5-2 8-1 23 4 16 7 17 8 18 14 1 9-4 14-16 14-5 0-28-5-51-10z m-19-101c-19-5-45-13-57-18-17-7-31-10-52-14-35-6-48-9-70-17-11-4-32-9-63-14-53-9-61-11-90-23-32-13-46-17-77-20-34-4-66-11-95-21-13-4-34-10-48-12s-25-4-25-5c-1 0-21-175-23-199-2-16-2-57-1-132 1-60 2-118 1-129-3-34-16-72-31-89l-7-8h7c4 0 28 6 54 13 58 16 232 63 468 126l184 49 7 7c16 16 17 18 29 135 9 92 13 135 13 159 0 23 2 37 9 67 5 20 5 23 4 57l-2 37-8 9c-4 6-14 17-22 26-17 20-25 23-51 24-18 1-22 0-54-8z m78-215c0-12-1-22-2-23s-4-3-7-4l-7-1v9c0 14-1 16-15 14-9-1-12-2-13-6-2-6-3-41 0-41 0 0 7 1 14 3 19 4 18 4 18-7 0-11 2-10-22-15l-13-2-1-25c-1-14-2-25-1-26 2-2 26 5 29 8 2 2 4 8 5 14 2 11 2 11 10 12 5 1 6 0 6-3-1-2-1-13-2-23l-1-19-42-10c-23-5-42-9-43-9-1 1 0 5 0 10 1 8 2 10 7 11 3 0 6 2 7 4 1 6 6 113 4 116-1 3-3 3-7 2l-7-1 2 9c1 6 2 10 2 11 1 1 66 12 73 12l6 0v-20z m-105 1c9-4 13-10 13-20 0-11-3-19-10-22-8-4-10-4-10 4 0 11-4 17-11 17-10 0-17-9-17-23 0-12 3-16 23-25 16-8 22-15 25-30 5-29-12-60-38-69-20-7-34 0-38 17-4 15 6 34 16 34 3 0 4-2 4-8 0-12 5-22 11-22 14 0 23 10 23 27 0 11-3 14-22 24-18 8-25 17-27 34-3 19 4 39 17 52 12 12 28 16 41 10z m-85-15c11-6 15-16 12-28-2-8-12-18-18-18-3 0-4 1-4 9 0 10-4 17-10 17-2 0-6-2-9-4-11-7-14-29-5-37 1-1 10-6 18-10s17-9 19-11c11-12 14-29 8-50-7-24-31-44-53-44-14 0-20 3-24 12-9 17-2 38 13 43 4 1 5 0 5-10 1-6 3-13 5-16 3-5 4-5 11-4 10 1 17 7 20 18 5 17-1 25-22 33-13 5-22 13-27 24-3 9-4 29-1 40 5 18 20 33 36 38 11 3 17 2 26-2z m-79-35c0-14-1-26-1-26-1-1-5-1-9-2l-8 0-1 10c-2 15-3 16-20 13-8-1-15-2-15-3s-1-11-2-25l-2-25 7 2c4 0 14 2 22 4 8 1 14 2 15 1 0 0 0-6 0-11l-1-11-18-3c-28-6-25-2-26-34-1-16-1-28-1-29 1-1 34 8 37 11 2 2 5 9 6 15 2 13 3 13 13 15l8 2-2-16c-3-33-3-37-7-38-4-1-97-23-107-25-4-1-12-2-18-2-12 0-16 4-31 34-15 30-15 31-20 28-4-2-4-5-4-27v-26l9 1 9 2v-11c0-9-1-11-3-12-9-4-66-16-68-15 0 1-1 6 0 12 1 10 2 10 9 12 4 1 9 4 10 6 2 4 7 130 5 135 0 2-3 3-9 3h-8v11c0 10 0 11 5 12 2 0 19 3 37 6 38 6 49 6 59-3 20-18 16-59-7-82l-8-8 12-22c7-13 14-25 17-27 4-4 5-5 13-3 6 1 11 3 12 5s3 21 4 49c1 26 2 54 3 63 1 20-1 24-11 22l-6-1v10c0 5 1 10 2 11 2 1 88 16 96 17l5 0-2-25z m-262-25c4-1 9-5 12-8 16-17 14-61-4-87-9-11-27-24-42-27-18-4-17-3-17-27 0-23 1-25 14-21 10 3 10 3 10-9 0-10-1-11-4-13-5-2-72-18-76-18-1 0-2 5-2 12l1 11 9 3c4 1 9 4 11 7 2 3 3 22 5 73 3 76 3 73-10 71l-8-1v12c0 14-4 12 39 19 45 7 47 7 62 3z m85-3c-3-1-4-5-5-21 0-10-1-24-1-31 0-13-1-12 17-6 12 4 17 15 18 34 0 20-3 25-17 25-5 0-10-1-12-1z m-126-22c-2-1-4-4-5-8-2-13-3-67-1-67 0 0 6 1 11 3 19 6 26 19 25 49-1 14-2 17-6 20-4 4-16 5-24 3z m-180-115c0-80 7-190 14-232 5-26 9-37 15-37 5 0 6 12 2 30-3 11-3 32-3 129 0 63-1 119-2 124-1 9-2 10-18 13l-8 1v-28z" horiz-adv-x="1000" />

<glyph glyph-name="i-dossier-trombonne" unicode="&#xe623;" d="M140 741c-16-189-51-805-48-809 6-5 732-50 737-45 5 5 61 887 57 892-6 5-450 37-610 42l-129 5-7-85z m254 57c-13-30-15-58-33-320-9-135-12-248-8-251 16-15 53-20 67-11 11 6 19 60 27 180 5 94 15 175 20 181 5 5 17 6 27 2 16-6 18-18 13-82-4-41-10-124-14-185-9-129-22-151-94-151-55 0-86 16-99 49-14 39 21 567 40 598 3 5 19 9 34 9 23 0 27-4 20-19z" horiz-adv-x="1000" />

<glyph glyph-name="i-empire" unicode="&#xe624;" d="M432 605c-4-1-16-2-26-3-45-5-96-19-134-37-121-57-222-178-249-297-7-31-11-67-8-75 2-4 5-4 5 0 0 5 26 53 40 76 55 88 120 158 190 204 56 37 99 55 167 68 123 24 226 8 308-47 44-29 103-93 144-153 16-24 17-25 7-5-35 70-92 145-139 182-54 44-117 71-197 83-18 3-93 6-108 4z m46-67c-40-4-103-18-133-29-10-4-28-12-40-18-86-43-170-126-235-232-16-27-39-69-37-70 0-1 11 1 23 3 37 7 144 21 191 27 88 10 136 13 209 14 97 2 130-1 185-17 139-41 219-72 288-113 12-7 23-13 24-13 4 0 6 9 4 22-1 13-13 59-19 73-2 6-3 11-2 13 0 2 0 2-2 1-2-1-2 0-1 3 1 3 1 4 0 3s-6 8-11 19c-43 100-145 226-217 268-51 31-106 45-175 47-19 0-43 0-52-1z m219-72c25-9 42-34 42-60 0-18-6-31-19-45l-12-11v-27c0-16-1-27-2-28-1-1-7 3-14 8l-12 9-19-10c-11-5-20-10-20-10s-1 13-1 29v29l-9 9c-21 18-27 49-15 74 14 31 49 45 81 33z m-38-30c-20-11-22-37-5-53 10-9 22-11 34-5 13 5 19 14 20 28 0 12-4 21-14 29-8 6-25 6-35 1z" horiz-adv-x="1000" />

<glyph glyph-name="i-enregistrer" unicode="&#xe625;" d="M64 806c-4-2-8-6-10-10-4-7-4-31-4-433s0-426 4-433c2-4 6-8 10-10 7-4 32-4 439-4s432 0 439 4c4 2 8 6 10 10 4 7 4 31 4 433s0 426-4 433c-7 14-4 14-129 14h-113v-126c0-77-1-130-2-134-2-8-12-19-21-22-3-1-80-2-243-2h-237l-8 5c-4 2-10 8-12 12l-5 8v259h-55c-49 0-57 0-63-4z m791-63c11-5 24-18 29-29 4-11 4-31-1-42-13-29-47-41-76-27-19 9-31 28-31 49 0 22 15 44 36 51 12 5 32 4 43-2z m-155-532c23-9 42-28 49-50 4-9 4-18 4-80v-70l-6-13c-9-18-22-33-39-41l-13-6h-442l-13 7c-22 10-39 31-44 54-1 5-2 36-2 70 0 68 1 76 13 96 10 17 31 32 52 36 4 1 103 1 220 1 198 0 213 0 221-4z m-412-39c-4-2-9-6-11-10-5-7-5-7-5-78 0-71 0-71 5-78 12-19 43-18 53 2 4 7 4 12 4 76 0 66 0 69-4 76-8 14-27 20-42 12z m-64 517v-121h444v242h-444v-121z" horiz-adv-x="1000" />

<glyph glyph-name="i-enveloppe-fermee" unicode="&#xe626;" d="M97 644c2-2 94-81 205-175 111-94 202-173 204-174 3-3 28 19 205 174 111 98 202 178 203 178s-184 1-410 1c-402 0-411 0-407-4z m-59-294v-258l35 30c20 16 89 74 153 128s117 99 117 100c0 1-53 46-117 100s-133 112-152 128l-36 30v-258z m785 129c-82-70-149-129-149-130-1-1 66-59 148-129l149-127 1 128c0 71 0 187 0 258l-1 128-148-128z m-581-298l-148-128 205-1c113 0 297 0 410 0l205 1-290 257-49-43c-27-24-51-45-54-46-5-4-18-4-24-1-2 2-25 21-52 44s-49 42-51 43c-3 2-24-15-152-126z" horiz-adv-x="1000" />

<glyph glyph-name="i-enveloppe-fermee-cadenas" unicode="&#xe627;" d="M750 770c-44-10-82-48-91-92-2-11-3-30-3-83v-70h-70l-6-6-5-5-2-125c-1-75 0-127 1-130 1-3 4-7 6-9 4-4 8-4 200-5l196 0 5 5c4 4 4 6 6 33 0 16 1 74 1 128v100l-5 6-5 6-40 0-40 1 0 68c0 78-1 90-14 115-10 21-31 42-52 53-26 12-54 16-82 10z m63-45c21-10 38-31 43-54 1-5 2-40 2-77v-69h-162v70c0 76 1 82 12 100 7 11 21 24 30 29 14 7 23 9 42 8 17 0 21-1 33-7z m-10-271c34-16 43-59 18-86-6-7-7-8-7-28-1-17-2-22-6-28-12-20-40-20-55 0-3 4-4 9-5 27l0 21-8 8c-21 23-18 59 5 79 16 13 40 16 58 7z m-734 31c1-1 74-63 162-139 88-76 172-148 187-162l28-23 49 43 49 44 0 120 1 119h-239c-131 0-238-1-237-2z m-51-271c0-188 1-235 3-234 3 3 275 233 275 234s-271 231-275 234c-2 1-3-46-3-234z m577-1c0-1 60-54 135-118l135-116 1 116c0 64 0 117 0 117-2 1-270 2-271 1z m-391-153c-74-65-135-118-136-118s167-1 373-1h373l-126 113c-70 63-129 116-132 119l-6 4-44-39c-25-22-47-41-49-43-7-3-17-2-24 2-3 2-25 20-49 41-23 20-43 37-44 38s-62-52-136-116z" horiz-adv-x="1000" />

<glyph glyph-name="i-enveloppe-ouverte" unicode="&#xe628;" d="M285 668c-113-91-205-166-205-166 0-1 190-2 421-2 412 0 422 0 418 4-4 3-424 326-428 328-1 1-94-73-206-164z m-263-475c0-253 0-265 3-263 2 2 70 59 151 127s150 127 154 130l8 7-156 131c-86 73-157 132-158 133-1 0-2-119-2-265z m464 259l-7-6-1-98h-98l-6-6c-5-5-6-7-6-16 0-7 1-13 3-16 7-9 14-10 62-10h45v-45c0-50 1-56 11-61 8-4 22-3 29 1 9 7 10 14 10 62l0 43h45c48 0 55 1 62 10 3 6 4 20 1 27-6 11-7 11-59 11h-49v44c0 23-1 46-2 50-3 11-10 16-23 16-9 0-12-1-17-6z m341-126c-84-73-152-133-152-134s68-59 150-130c83-71 152-130 154-132 3-2 3 10 3 263 0 146-1 265-1 265-1 0-70-60-154-132z m-595-307l-153-132 212-1c116 0 306 0 421 0l210 1-141 126c-78 69-145 129-149 133l-8 6-49-44c-52-46-62-53-74-51-6 1-42 30-97 79-8 7-16 14-17 15-1 0-71-59-155-132z" horiz-adv-x="1000" />

<glyph glyph-name="i-enveloppe-ouverte-cadenas" unicode="&#xe629;" d="M248 630c-98-79-179-146-181-147-1-1 62-2 238-2l240 1 1 16c2 22 8 33 25 44 5 3 11 4 31 5l25 1 0 37 1 37-99 76c-55 42-100 76-101 76s-81-64-180-144z m504 130c-33-7-65-31-80-60-13-25-14-30-15-110l-2-73h-34c-38 0-41-1-45-14-1-4-2-51-2-128v-122l6-6 5-6 390-3 5 6c5 5 5 6 7 33 0 16 1 73 1 127v99l-10 12h-33c-17 0-35 1-39 1l-8 2v69c0 63 0 71-4 85-6 22-15 38-32 55-29 30-69 42-110 33z m60-44c17-8 31-22 39-39l6-13 1-73 0-74h-162v65c0 35 1 69 2 75 4 23 17 42 36 54 15 10 24 12 46 11 17 0 21-1 32-6z m-7-270c33-16 41-56 17-84l-8-9v-17c0-15-1-20-4-27-9-17-29-23-45-13-12 7-16 14-17 38 0 20-1 20-8 29-23 25-16 64 13 81 17 10 34 10 52 2z m-789-234c0-128 0-233 1-233 3 0 277 233 276 234-1 1-62 52-136 114-74 62-136 114-137 116-4 2-4-9-4-231z m412 230c-9-5-10-9-10-52v-41l-86-1-6-7c-8-9-8-19 0-28l6-7 86-1v-40c0-43 1-48 10-53 9-5 19-4 26 3l7 6 1 84h40c45 0 51 1 55 15 4 10 0 21-9 25-6 3-13 4-46 4h-40l-1 84-7 6c-7 7-17 8-26 3z m163-230c0-1 60-55 135-119l136-116v234h-49c-28 0-88 1-135 1-53 1-86 1-87 0z m-390-154l-134-116 184-1c102 0 269 0 371 0l187 1-128 114c-70 62-129 115-131 116-3 3-8-1-44-33-51-45-52-46-61-47-10-2-13 1-65 46-24 20-43 36-44 36 0 1-61-52-135-116z" horiz-adv-x="1000" />

<glyph glyph-name="i-etoile" unicode="&#xe62a;" d="M413 654c-38-77-71-141-71-141s-68-10-152-22c-83-12-156-21-162-21s44-50 108-111l116-112-24-136c-12-75-25-145-28-156-4-14 30-1 139 54l145 71 145-71c109-56 143-69 138-54-3 11-16 81-28 156l-24 136 117 112c64 61 113 111 107 111-18 0-312 43-314 45s-34 65-73 143l-68 138-71-142z" horiz-adv-x="1000" />

<glyph glyph-name="i-facebook" unicode="&#xe62b;" d="M181 815c-3-1-13-3-21-5-60-15-106-60-125-121l-6-18v-652l6-18c19-61 64-105 126-122l16-4h656l16 4c62 17 107 61 126 122l6 18v652l-6 18c-19 61-63 103-125 122l-15 4-324 0c-178 0-327 0-330 0z m663-12c34-10 58-23 80-45 22-22 40-56 46-85 3-17 3-639 0-656-10-52-51-102-101-121-35-14-8-13-364-13s-329-1-364 13c-50 19-91 69-101 121-3 17-3 639 0 656 5 25 19 54 38 76 24 30 69 53 109 57 9 1 157 1 329 1l313 0 15-4z m-640-13c-25-3-55-15-78-30-33-23-59-63-69-105-4-15-4-32-4-310s0-295 4-310c13-57 52-102 105-124 33-13 10-12 343-12 282 0 303 0 316 4 68 17 117 66 132 132 4 15 4 32 4 310s0 295-4 310c-13 57-52 102-105 124-33 13-9 12-335 12-163 0-302 0-309-1z m619-34c42-14 71-38 89-75 16-33 15-6 15-336s1-303-15-336c-18-37-48-62-90-75l-15-5h-604l-15 5c-42 13-72 38-90 75-16 33-15 6-15 336 0 274 0 295 4 307 4 17 17 42 28 56 20 26 55 46 89 52 5 1 143 1 307 1l298 0 14-5z m-157-78c-37-4-70-25-92-56-10-15-15-26-23-46-6-17-6-18-7-64l0-48h-106v-124h106v-378h162v378h116v124h-117l1 28c2 31 4 39 17 50 13 10 22 12 62 12h37v126l-71 0c-40 0-78-1-85-2z" horiz-adv-x="1000" />

<glyph glyph-name="i-feuille-01" unicode="&#xe62c;" d="M444 725c-4-1-15-2-24-3-29-4-47-8-118-28-79-23-172-48-240-66-26-7-47-13-48-13s5-4 12-9c67-45 144-142 212-268 14-25 51-82 73-112 30-41 55-70 91-106 55-55 98-87 155-115 119-59 247-60 363-2 30 15 39 21 41 29 3 19 7 74 8 116 5 185-44 334-143 437-71 74-164 120-273 136-19 3-95 6-109 4z" horiz-adv-x="1000" />

<glyph glyph-name="i-feuille-02" unicode="&#xe62d;" d="M947 812c-19-12-68-35-128-60-54-22-125-36-232-44-124-9-157-14-203-27-74-21-153-67-205-120-33-33-56-70-71-117-13-38-17-64-17-113 0-54 6-96 20-148l5-19-12-14c-36-43-64-103-73-154-3-22-4-45-1-53l2-6 5 6c15 21 46 58 68 81 32 33 66 63 71 61 2 0 16-6 31-14 64-29 123-47 185-55 28-4 96-4 124 1 123 19 233 88 325 205 33 42 51 72 64 107 24 64 38 145 47 260 3 37 5 185 3 208l-2 18-6-3z m-70-135c-51-89-201-185-396-255-42-15-130-69-189-116-24-19-54-47-67-64-5-7-10-14-11-15-1-1-1 3 1 9 20 67 81 137 166 193 50 33 93 54 181 89 180 72 263 113 300 147 7 7 14 14 15 17s4 5 5 5c0 0-2-5-5-10z" horiz-adv-x="1000" />

<glyph glyph-name="i-fleche-agrandissement" unicode="&#xe62e;" d="M410 722l-85-85h122v-181h106v181h123l-86 85c-46 47-87 85-90 85s-44-38-90-85z m399-269v-60h-192v-107h190l4-53 3-54 83 83 82 83-170 170v-62z m-706-36l-82-83 171-170v122h191v107h-190l-4 53-3 54-83-83z m344-285v-90h-122l88-88 87-88 87 88 89 88h-123v180h-106v-90z" horiz-adv-x="1000" />

<glyph glyph-name="i-fleche-bas" unicode="&#xe62f;" d="M173 412c87-86 193-188 235-227l76-73 76 73c42 39 148 141 235 227l159 155h-941l160-155z" horiz-adv-x="1000" />

<glyph glyph-name="i-fleche-deplacement" unicode="&#xe630;" d="M681 759l58-59-91-86-92-84 50-51c26-28 54-51 61-51s49 38 94 83l82 83 35-31c18-16 44-40 59-51l24-21v326h-339l59-58z m-653-116v-163l55 52c30 28 59 51 64 51s47-39 94-85l87-87 52 53 53 53-89 89-87 88 109 112h-338v-163z m578-399l-49-50 175-177-109-111h338v325l-55-52c-30-28-59-51-64-51-5 0-46 38-92 83s-86 83-89 83c-3 0-29-22-55-50z m-378-44l-82-83-35 31c-18 16-44 40-59 51l-24 21v-326h339l-59 58-58 59 91 86 92 84-50 51c-26 28-54 51-61 51s-49-37-94-83z" horiz-adv-x="1000" />

<glyph glyph-name="i-fleche-droite" unicode="&#xe631;" d="M261 350v-483l241 242 242 241-242 241-241 242v-483z" horiz-adv-x="1000" />

<glyph glyph-name="i-fleche-droite-btn" unicode="&#xe632;" d="M75 808c-14-5-25-15-32-28l-6-11v-834l6-11c7-13 18-23 32-28 11-4 15-4 426-4s415 0 426 4c14 5 25 15 32 28l6 11v834l-6 11c-7 13-18 23-32 28-11 4-15 4-427 4-407 0-415 0-425-4z m459-301l162-162-326-326v326c0 179 0 325 1 325 0 0 73-73 163-163z" horiz-adv-x="1000" />

<glyph glyph-name="i-fleche-gauche" unicode="&#xe633;" d="M467 578l-239-239 483-483v481c0 263-1 480-3 480-1 0-110-108-241-239z" horiz-adv-x="1000" />

<glyph glyph-name="i-fleche-gauche-btn" unicode="&#xe634;" d="M98 809c-16-5-30-18-36-35-4-10-4-14-4-410 0-395 0-400 4-411 5-12 17-25 30-31l9-5h818l9 5c13 6 25 19 30 31 4 11 4 16 4 411s0 400-4 411c-5 12-17 25-30 31l-9 5-406 0c-335 1-408 0-415-2z m540-438v-318l-318 318 158 158c88 88 159 159 159 159 1 0 1-143 1-317z" horiz-adv-x="1000" />

<glyph glyph-name="i-fleche-haut" unicode="&#xe635;" d="M412 508c-41-37-142-135-225-217l-154-149h902l-153 149c-83 82-185 180-225 217l-73 70-72-70z" horiz-adv-x="1000" />

<glyph glyph-name="i-fleche-haut-bas" unicode="&#xe636;" d="M324 575l-162-162h648l-162 162c-89 89-162 162-162 162s-73-73-162-162z m0-436l162-162 158 158c87 87 159 160 159 162 0 2-144 4-320 4h-321l162-162z" horiz-adv-x="1000" />

<glyph glyph-name="i-fleche-tourne-gauche" unicode="&#xe637;" d="M205 686c-85-82-158-152-163-157l-8-8 177-133c97-73 178-132 178-132 1 1 4 30 8 66 4 36 7 65 8 65 2 2 26 5 50 7 60 4 119-5 168-26 107-45 170-143 190-291 7-49 7-133 2-194l-1-14 7 11c12 18 35 61 48 90 58 126 77 247 57 349-35 170-179 288-427 349-22 5-57 13-77 17s-37 7-38 8c-4 5-14 63-20 118-2 12-3 23-4 23-1 0-71-67-155-148z" horiz-adv-x="1000" />

<glyph glyph-name="i-gregorien" unicode="&#xe638;" d="M456 656v-139h-278v-67h278v-578h77v578h267v67h-267v277h-77v-138z" horiz-adv-x="1000" />

<glyph glyph-name="i-guillemet-ferme" unicode="&#xe639;" d="M74 621v-175l77 0c42 0 78 0 80 0 3 0 3-1 2-23-3-54-13-110-25-148-24-70-70-123-140-157-12-6-21-11-21-12 1-1 72-113 74-116 0 0 13 6 29 14 92 47 161 114 203 197 28 56 43 135 49 246 1 22 2 110 2 195v154h-330v-175z m530 0v-175h161l-2-25c-4-71-19-141-40-183-12-25-30-48-51-68-23-23-43-37-73-52l-22-11 36-56c20-31 37-58 38-59 1-1 10 2 27 11 88 44 151 102 196 181 27 48 43 106 53 190 6 51 7 102 7 262v160h-330v-175z" horiz-adv-x="1000" />

<glyph glyph-name="i-guillement-ouvert" unicode="&#xe63a;" d="M326 753c-88-44-151-102-196-181-21-37-35-80-45-135-13-74-15-120-15-316v-161h330v350h-161l2 25c3 52 12 106 25 145 14 42 30 70 60 100 22 24 46 41 78 57l23 12-36 56c-20 31-37 58-38 59-1 1-10-2-27-11z m525-3c-52-27-90-55-128-94-81-85-112-174-121-347-1-22-2-110-2-194v-155h330v350l-73 0c-41 0-77 0-81 0l-7 0 2 23c7 122 36 201 92 255 21 20 39 32 69 48l26 13-38 58c-20 33-37 59-38 59s-14-7-31-16z" horiz-adv-x="1000" />

<glyph glyph-name="i-hebreu" unicode="&#xe63b;" d="M417 718l-71-121-286-2 71-122c39-67 71-123 71-124 0-1-32-57-71-124l-71-122 286-2 71-121c38-67 70-122 70-121 1 0 32 55 71 121l70 121 286 2-71 122c-39 67-71 123-71 124 0 1 32 57 71 124l71 122-286 2-70 121c-39 66-70 121-71 121 0 1-32-54-70-121z m116-43c25-43 45-78 45-78 0-1-41-1-91-1s-91 1-91 2c3 5 91 156 91 155 1 0 21-35 46-78z m-213-122c0-1-21-37-46-81-39-67-47-80-49-77-1 3-82 143-90 158-1 0 41 1 92 1s93-1 93-1z m342-100c32-56 59-103 59-104 0-1-27-48-59-103l-59-102h-232l-59 102c-32 55-59 102-59 103 0 1 27 48 59 104l59 101h232l59-101z m177 100c0-1-20-36-44-78s-45-78-46-80c-2-3-10 10-49 77-25 44-46 80-46 81 0 0 42 1 93 1s93-1 92-1z m-565-327c26-44 46-81 46-81-1-1-43-1-94-1l-92 1 47 80c25 45 46 81 46 81 0 0 21-36 47-80z m543-42l23-39-92-1c-51 0-93 0-94 1 0 0 20 37 46 81l46 80 25-41c13-23 34-60 46-81z m-239-83c0-2-90-156-91-156-1 1-91 155-91 156 0 1 41 1 91 1s91 0 91-1z" horiz-adv-x="1000" />

<glyph glyph-name="i-heraldique" unicode="&#xe63c;" d="M66 407l1-410 5-9c12-20 35-34 66-42 22-5 51-7 130-10 101-3 150-10 185-26 22-10 37-27 37-43 0-6 1-7 4-7s4 1 4 7c0 16 15 33 37 43 35 16 84 23 185 26 35 1 74 3 88 4 46 4 76 14 96 34 20 19 18-25 18 436v406h-856l0-409z m808 6c0-397 1-365-15-382-14-14-37-24-67-29-7-1-41-3-76-4-71-2-99-4-132-10-53-9-82-27-82-52 0-4-1-6-3-6-3 0-5 4-5 11s-8 18-16 24c-24 18-68 27-153 31-117 5-124 6-140 10-28 8-48 21-58 39l-4 8-1 358 0 357h752v-355z m-740-6c0-383-1-357 12-370 9-10 31-19 56-23 7-1 40-3 73-4 71-2 106-5 136-10 43-7 69-19 82-36l5-8 4 5c15 25 57 39 133 45 14 1 53 3 86 4 63 2 86 5 106 12 13 5 28 18 32 27 3 6 3 66 3 357v350h-728v-349z m190 305c5-5 11-14 14-20 13-27 13-50-1-94-17-56-18-71-8-113 8-31 10-49 5-58-2-3-7-10-12-15l-8-9-5 5c-9 8-17 22-18 31-1 6 1 17 7 42 4 19 8 39 8 45 0 17-5 38-15 72-14 44-14 67-2 93 6 11 21 29 25 29 1 0 6-4 10-8z m-69-98c16-7 27-17 34-30 5-9 6-14 7-30 0-14 1-21 3-22 4-3 4-11 0-14-1-1-3-6-4-12-5-34-33-55-58-43-9 5-13 10-13 20 0 13 14 22 26 17 8-3 12-9 12-17 0-9 4-9 12 0 5 6 14 26 14 31 0 1-3 2-6 2-6 0-9 5-7 13 1 4 2 5 7 5 5 0 6 1 6 7 0 10-6 29-11 37-6 10-16 14-30 14-14 0-22-4-25-13-3-8-3-8 4-4 9 4 15 4 22-3 6-5 7-7 7-14 0-15-14-23-35-22-23 2-35 16-35 40 0 24 14 41 36 44 12 2 20 0 34-6z m165 2c28-14 32-57 8-73-12-8-30-9-42-3-15 7-17 23-6 33 7 6 14 6 22 2 3-2 6-2 6-1 0 5-5 13-10 15-7 4-27 4-34 0-12-6-21-22-23-42l-1-13 6 0c7-1 7-1 7-9s0-8-7-9c-4 0-6-1-5-3 0-1 2-7 4-12 3-11 14-25 18-25 2 0 3 2 3 6 0 8 3 13 10 17 13 7 28-2 28-17 0-22-33-30-53-12-9 8-14 18-17 34-1 6-4 13-5 14-4 3-4 11 0 14 1 1 3 9 4 21 1 23 5 33 18 46 21 21 49 27 69 17z m266-264c12-17 17-34 16-59-1-17-3-25-11-49-11-33-16-61-14-75 0-6 4-24 8-39 7-30 8-40 5-49-3-8-18-27-21-27-3 0-16 14-20 23-5 10-4 25 4 55 11 43 10 60-7 113-10 33-13 52-10 69 3 17 14 40 24 49 8 7 8 7 13 4 3-2 9-9 13-15z m-74-89c6-3 15-10 21-16 13-12 17-24 17-47 0-12 1-15 4-19 5-5 5-6-2-17-1-2-3-9-5-17-5-24-21-37-42-37-22 0-35 20-21 34 6 6 16 8 24 4 6-3 11-14 9-19-1-6 1-6 9 0 5 5 12 18 15 29 1 5 1 6-4 6-5 1-6 2-7 7-2 8 1 13 7 13 6 0 6 0 4 13-1 19-9 35-21 41-19 9-44 2-44-13 0-2 1-2 7 0 8 4 16 2 22-5 11-13 4-29-16-34-17-5-38 4-45 18-8 15-4 40 8 53 13 14 38 17 60 6z m160 4c23-10 33-39 22-62-10-21-44-27-60-11-10 10-7 25 6 31 6 3 7 3 14 0 7-2 8-2 8 0 0 15-27 22-45 12-10-5-18-20-20-33-1-5-2-11-2-14-1-5 0-6 6-6 6-1 6-1 6-10 0-8 0-9-5-10-8 0-8-4 0-19 5-11 14-21 18-21 0 0 1 4 1 8 0 11 8 18 19 18 21 0 27-25 9-36-14-8-36-3-48 11-7 7-13 23-13 33 0 3-1 7-3 8-5 4-6 10-1 15 3 3 4 7 4 24 1 17 2 21 7 29 8 15 26 29 43 34 9 3 26 2 34-1z" horiz-adv-x="1000" />

<glyph glyph-name="i-horloge" unicode="&#xe63d;" d="M459 781c-102-11-190-51-261-119-66-65-107-143-123-237-5-28-5-100 0-128 20-120 84-218 183-285 49-33 105-55 167-66 37-7 105-7 142 0 92 16 169 56 233 121 64 65 101 139 117 230 5 28 5 100 0 128-11 63-32 117-65 166-66 100-166 164-285 185-23 4-87 7-108 5z m9-140c1-31 2-35 13-40 13-6 33-2 39 7 2 4 3 13 4 33l0 27 11-1c133-17 240-116 267-247 2-11 4-22 4-26v-6h-29c-31 0-33-1-40-10-4-6-4-24-1-31 6-10 9-11 41-11h29v-7c0-4-2-16-4-27-12-57-39-109-78-151-50-52-118-87-189-96l-11-1 0 29-1 29-7 6c-6 7-7 7-20 7s-14 0-20-7l-7-6-1-29 0-29-11 1c-105 14-198 80-243 175-5 12-12 28-15 37-6 19-13 52-13 62v7h56l6 6c7 5 7 6 7 20s0 15-7 20l-6 6h-56v6c0 4 2 15 4 26 22 107 99 195 202 232 19 6 57 15 71 16 4 0 5-1 5-27z m155-66c-8-5-172-179-176-188-4-7-4-23 0-30 13-26 102-173 107-177 23-20 60-3 60 27 0 11 2 8-47 91-36 60-41 68-39 72 2 2 35 37 73 78 39 41 72 77 73 81 4 7 5 20 2 28-3 7-11 16-18 20-9 5-26 4-35-2z" horiz-adv-x="1000" />

<glyph glyph-name="i-imprimer" unicode="&#xe63e;" d="M232 727c-34-9-60-38-66-73-1-7-2-33-2-56v-44h-55c-61 0-66-1-72-12-4-9-4-411 0-420 6-11 11-12 73-12h56v70c0 42 1 72 2 77 3 9 15 23 25 27 8 4 22 4 298 4s290 0 298-4c10-4 22-18 25-27 1-5 2-35 2-77v-70h56c62 0 67 1 73 12 4 9 4 411 0 420-6 11-11 12-72 12h-55v49c0 26-1 52-2 57-8 32-34 58-67 67-17 4-500 4-517 0z m503-71c9-5 9-7 9-55v-47h-506v92l12 12h240c179 0 241-1 245-2z m-545-201c22-14 22-47 0-62-28-20-69 9-58 42 8 24 37 34 58 20z m58-251l-6-6v-220l6-6 6-7 234-1c207 0 235 0 240 3 12 6 12 4 12 122v107l-14 14h-472l-6-6z" horiz-adv-x="1000" />

<glyph glyph-name="i-indien" unicode="&#xe63f;" d="M243 629c-100-25-133-52-122-99 5-16 10-19 33-14 17 3 41 16 57 29 23 19 39 24 83 24 62 0 82-14 93-66 5-27 2-34-38-72-33-31-52-43-73-43-29 0-33-6-23-32 5-13 22-15 85-15 109 0 125-14 122-98-3-74-12-92-69-133-40-29-48-31-115-30-118 1-172 41-188 139-10 53-37 58-34 5 8-135 192-245 347-207 28 6 63 24 81 41l33 28 37-17c40-18 107-15 141 6 10 6 34 43 54 82 56 107 103 125 133 49 40-99 10-145-106-157-58-7-79-17-79-38 0-20 140-12 176 10 52 30 77 77 77 143 0 49-5 65-26 97-36 52-76 74-124 67s-69-27-105-97c-38-75-62-100-95-100-47 0-63 15-69 65-13 98-25 134-55 159-15 13-34 24-43 24-7 0-12 2-10 7 42 81 43 111 5 178-34 59-104 84-183 65z m309-68c0-17 89-87 149-117 46-23 68-28 105-25 43 2 47 5 63 36 21 42 32 114 19 114-5 0-13-10-16-24-15-62-127-68-240-13-36 18-68 34-72 35-5 2-8-1-8-6z" horiz-adv-x="1000" />

<glyph glyph-name="i-information" unicode="&#xe640;" d="M460 833c-34-4-59-8-81-14-80-21-154-62-213-121-73-72-116-157-133-261-5-31-5-103 0-134 8-52 21-91 42-135 24-49 52-87 91-126 71-71 163-116 263-131 33-5 103-5 136 0 100 15 192 60 263 131 73 72 116 157 133 261 3 17 4 33 4 67 0 47-2 67-11 106-15 62-48 129-90 183-7 9-23 26-36 39-71 70-162 116-262 131-20 3-91 6-106 4z m50-173c12-5 23-17 30-32 4-9 5-14 5-29 0-24-6-38-20-52-13-13-26-17-50-17-23 0-36 5-49 19-13 14-17 27-17 48 1 34 19 59 48 66 15 4 40 3 53-3z m28-316c0-102 1-141 3-146 3-10 14-15 28-12l11 1 1-6c3-15 9-62 9-66 0-4-2-5-14-10-53-19-105-14-136 14-10 9-19 27-22 42-1 8-2 64-2 166v155h122l0-138z" horiz-adv-x="1000" />

<glyph glyph-name="i-islamique" unicode="&#xe641;" d="M459 823c-118-13-216-60-293-140-65-69-106-152-121-248-5-31-5-101 0-133 15-94 56-179 121-247 70-73 161-120 264-136 43-7 176-4 241 6 11 2 20 3 21 3 1 0 2 1 2 2 0 1-6 2-14 3-60 5-141 28-197 55-50 24-84 47-121 83-63 62-100 132-117 224-5 28-6 99-2 133 18 139 96 248 225 314 34 17 64 29 101 40 31 9 77 19 106 22 10 2 19 4 19 4s-1 2-2 2c-1 0-10 1-21 3-45 7-182 13-212 10z m262-330c-22-46-24-49-30-50-3-1-27-4-54-8-26-4-48-7-48-7-1-1 17-19 38-40l39-38-9-53c-5-30-9-54-8-54 0-1 22 10 49 24l48 25 48-25c27-14 49-25 49-24s-3 24-8 53l-9 53 40 40c22 21 40 39 39 39-2 0-99 14-104 15-5 1-8 6-30 50-13 27-24 49-25 49-1 0-12-22-25-49z" horiz-adv-x="1000" />

<glyph glyph-name="i-julien" unicode="&#xe642;" d="M416 797c-1 0-11-4-24-7-26-7-38-13-48-23-8-9-16-23-16-31 0-4 0-4 10-3 32 4 61 24 75 53 5 9 6 14 3 11z m170 0c0-4 12-24 18-32 14-16 39-29 62-32 10-1 10-1 10 3 0 8-8 22-16 31-10 10-22 16-48 23-13 3-23 7-24 7-1 1-2 1-2 0z m-285-17c-1-1-10-9-20-16-21-15-31-28-35-45-2-8-2-26 1-28 0-1 5 1 9 3 12 6 32 26 39 38 9 17 16 50 10 50-1 0-3-1-4-2z m396-7c3-27 12-46 30-63 11-11 28-22 30-19 3 2 3 20 1 28-4 17-14 29-36 46-12 9-22 16-23 16-2 1-3-1-2-8z m-507-60c-25-27-32-39-32-60 0-11 1-17 5-24 3-6 6-11 8-11 4 0 26 24 31 36 9 18 12 33 12 55 0 11-1 21-2 23-1 2-6-2-22-19z m601 19c-2-9-1-43 2-55 2-6 5-16 9-23 5-12 27-36 31-36 2 0 5 5 8 11 4 7 5 13 5 24 0 21-7 34-32 60-12 12-21 22-21 23 0 0-1-2-2-4z m-486-23c-12-3-28-11-35-16l-5-4 13-3c19-4 72-4 87 1 7 2 16 4 22 5l10 1-13 6c-7 4-18 8-25 10-15 4-40 4-54 0z m339 0c-6-2-17-6-24-10l-13-6 10-1c6-1 15-3 22-5 16-5 74-5 90-1l10 3-10 7c-17 11-30 14-53 15-15 1-24 0-32-2z m-371-39c-18-2-28-6-43-13-13-7-38-27-38-31 0-2 7-2 21-1 27 1 47 8 77 26 7 4 17 9 24 12l13 5-8 1c-17 2-34 3-46 1z m429 1c-4-1-11-2-16-2l-9-1 13-5c7-3 17-8 24-12 30-18 50-25 78-26 13-1 20-1 20 1 0 4-25 24-38 31-20 10-51 16-72 14z m-583-20c-2-9-7-24-10-34-9-22-11-38-6-55 3-12 14-34 18-35 3-1 15 22 18 37 5 20 3 50-5 74-3 10-7 21-9 23-2 5-3 5-6-10z m755-1c-16-42-16-79 0-112 4-6 7-12 9-11 4 1 15 23 18 35 5 17 3 33-6 55-3 10-8 25-10 34-2 8-4 15-4 15s-4-7-7-16z m-643-38c-47-11-80-36-88-67l-1-6 10 2c19 2 35 12 68 44 12 11 24 22 29 25 4 2 7 5 7 5 0 2-9 1-25-3z m517 3c0 0 3-3 8-5 4-3 16-14 28-25 33-32 49-42 68-44l10-2-1 6c-7 28-39 55-79 65-17 4-34 7-34 5z m-689-67c0-9-2-23-4-32-7-35 1-61 25-86 13-12 13-12 15-8 5 9 8 30 6 46-1 26-18 65-36 87l-6 7 0-14z m876 2c-26-36-38-81-30-114 4-20 5-20 19-6 24 25 32 51 25 86-2 9-4 23-4 31 0 8 0 15-1 15 0 0-4-6-9-12z m-742-10c-50-22-81-56-86-93-1-11 2-11 16-3 20 11 40 34 65 76 4 6 10 14 13 18s5 6 5 7c-1 0-6-2-13-5z m605 4c0-1 2-3 4-5 2-2 8-9 12-17 29-46 47-67 67-78 14-8 17-8 16 2-4 28-21 54-48 73-17 12-51 29-51 25z m-639-96c-41-34-63-73-57-105 3-20 4-20 19-4 16 16 29 41 36 70 3 11 8 27 12 35 4 9 6 16 6 16 0 0-8-5-16-12z m676-4c4-8 9-24 12-35 7-29 20-54 36-70 15-16 16-16 19 4 6 30-13 67-52 100-22 19-23 19-15 1z m-812-14c2-6 4-20 5-31 4-35 12-53 32-71 10-10 29-22 34-22 3 0 2 30-1 42-4 12-15 33-24 45-7 10-36 40-43 45l-5 4 2-12z m941-5c-29-28-46-53-53-77-3-12-4-42-1-42 5 0 24 12 34 22 20 18 28 36 32 71 1 11 3 25 5 32 1 6 2 11 2 11-1 0-9-8-19-17z m-810-72c-26-31-39-73-34-107 1-9 3-19 5-23 3-7 3-7 7-5 8 5 17 21 21 35 2 10 4 23 4 45 0 18 2 38 4 47 2 9 3 16 2 16s-4-3-9-8z m686 9c0-1 1-8 3-17 2-9 4-29 4-47 0-22 2-35 4-45 4-14 13-30 21-35 4-2 4-2 7 5 2 4 4 14 5 23 4 27-2 55-18 83-7 13-26 36-26 33z m-819-63c4-6 9-18 12-27 9-26 15-36 28-49 8-8 17-15 27-20 14-7 38-14 40-12 0 0 0 6-2 12-6 32-28 61-64 84-14 9-42 23-46 23-1 0 1-5 5-11z m950 4c-52-24-85-60-93-100-2-6-2-12-2-12 2-2 26 5 40 12 10 5 19 12 27 20 13 13 19 23 28 49 3 9 8 21 12 27 4 6 6 11 4 11-1 0-8-3-16-7z m-803-58c-10-29-13-42-13-67 0-19 1-25 5-35 4-11 21-31 25-31 2 0 5 5 8 11 10 21 8 56-5 88-5 13-8 21-12 43l-1 9-7-18z m658 2c-1-8-5-23-9-33-15-38-17-69-6-91 3-6 6-11 8-11 1 0 6 4 11 10 23 23 26 63 9 114-10 29-10 29-13 11z m-768-85c9-10 19-22 24-28 19-24 56-41 91-44 21-1 21 0 8 18-21 31-65 56-117 67-23 5-23 5-6-13z m880 13c-51-11-95-36-115-67-13-18-13-19 9-18 35 3 71 20 92 47 7 8 17 20 24 28 15 15 14 15-10 10z m-719-12c-1-5-2-20-2-34 0-31 4-47 17-66 11-17 31-36 35-33 1 1 2 6 3 12 4 21-5 55-20 74-4 6-13 21-19 32s-12 22-12 22c0 0-2-3-2-7z m552-15c-7-12-15-27-20-33-14-18-23-54-19-74 1-6 3-11 5-11 4 0 20 14 28 25 17 23 24 47 22 83 0 13-1 25-2 28-2 4-3 3-14-18z m-482-67c2-17 8-39 15-53 12-24 37-44 58-47l8-2v11c0 21-17 46-43 65-7 5-19 15-26 23l-14 15 2-12z m414-2c-7-8-18-18-26-24-27-20-43-44-43-65v-11l8 2c30 5 57 34 68 73 4 13 7 38 6 38-1 0-6-6-13-13z m-583-27c6-4 21-14 33-22 12-8 25-16 29-18 23-12 62-16 83-8 7 2 13 5 13 6 3 2-12 17-23 23-27 15-63 23-111 24l-35 1 11-6z m715 5c-34-4-67-13-85-24-12-6-27-21-24-23 0-1 6-4 13-6 21-8 60-4 83 8 4 2 17 10 29 18 12 8 27 18 33 21l11 7-27 0c-15 0-30-1-33-1z m-463-23c0-5 7-19 16-32 10-14 21-24 38-32 10-6 15-7 32-8l20-1-2 6c-3 10-7 18-16 27-12 11-20 16-50 27-14 5-27 11-30 12-7 4-8 4-8 1z m253 0c-2-1-15-7-30-12-31-12-39-17-51-28-9-9-13-17-16-27l-2-6 20 1c17 1 22 2 32 8 7 3 17 9 22 13 9 8 22 26 28 40 6 12 5 15-3 11z m-341-56c-16-2-35-6-64-12l-18-5 20-4c11-3 25-7 32-10 21-9 32-11 53-11 29 0 47 5 66 18 9 6 9 7 6 10-12 13-51 19-95 14z m374 0c-12-2-28-9-33-14-3-3-3-4 6-10 19-13 37-18 66-18 21 0 32 2 53 11 7 3 21 7 33 10 14 3 18 5 15 5-75 17-108 21-140 16z m-218-26c-17-4-43-14-64-25-21-11-50-27-50-28 0-1 14-1 31 0 47 2 82 11 108 30 15 11 25 23 21 25-5 3-30 2-46-2z m78 2c-4-2 6-14 21-25 26-19 61-28 109-30 16-1 30-1 30 0 0 3-56 32-82 42-30 13-69 19-78 13z" horiz-adv-x="1000" />

<glyph glyph-name="i-legion" unicode="&#xe643;" d="M144 653v-180l123-57c67-31 123-57 124-58 1-2 29-88 28-90 0 0-50 10-111 23-61 13-111 23-111 23-1-1 7-15 16-31 17-29 32-63 38-82 5-15 4-33-2-51-7-19-23-52-40-82-7-13-12-23-12-24 0 0 50 11 111 24s111 24 111 24c1-1-10-50-23-110-13-60-24-110-24-110 0-1 11 4 24 12 49 28 92 44 114 44 22 0 63-15 116-45 11-6 21-11 21-10s-10 50-24 109c-14 60-25 109-24 109s50-10 112-23c62-13 113-24 114-24 2 1-3 11-10 24-30 51-45 89-45 111s16 61 46 113c6 12 11 21 10 22-1 0-50-11-110-24-59-13-108-24-109-24s5 21 13 46l13 47 247 114v359h-234l0-196-1-197-67-20-67-21-136 42-1 196 0 196h-230v-179z" horiz-adv-x="1000" />

<glyph glyph-name="i-lettre" unicode="&#xe644;" d="M34 587v-18h153c145 0 153 0 152-3-3-13-145-385-151-398-11-24-22-31-44-31h-10v-24h-100v-36h936v36h-374v23l-13 2c-17 1-27 6-33 17-3 5-40 100-81 211l-74 202 191 1c105 0 191 0 191-1 1 0-10-29-23-64s-24-64-24-65c0-1 9-2 20-2h20v-190h-20c-12 0-20-1-20-2 0-1 10-29 22-61 13-33 23-62 24-65s3-4 3-4c1 2 49 128 49 130 0 1-9 2-20 2h-20v190h20c11 0 20 0 20 1 0 0-11 30-24 65s-24 65-24 65c0 1 43 1 95 1h95v36h-936v-18z m322-83c0-5 21-68 46-137 13-37 24-68 24-68 0-1-33-2-73-2s-73 0-73 1c0 0 13 35 29 78 26 70 43 120 43 128 0 2 1 3 2 3 1 0 2-1 2-3z m98-280c16-46 19-61 12-72-5-9-16-13-34-14l-16-2v-23h-122v23l-17 1c-19 2-29 6-36 15-3 4-4 8-4 19 0 11 3 19 13 47 7 19 14 37 15 41l3 6 85 0 86-1 15-40z" horiz-adv-x="1000" />

<glyph glyph-name="i-livre" unicode="&#xe645;" d="M687 833l-6-5-1-136h218v134l-12 12h-194l-5-5z m-238-132l-7-3v-295l5-3c4-1 33-2 105-2 86 0 100 0 104 3l4 3v146c0 80-1 146-2 147-3 6-14 7-108 7-77 0-96-1-101-3z m231-442v-375l12-12h96c65 0 98 1 100 2 10 6 10-11 10 387v370l-16 2c-10 0-59 1-109 1h-93v-375z m-359 271c-3-3-3-29-3-327 0-312 0-325 4-328 3-3 9-3 48-3 37 0 44 0 47 3 3 3 3 35 3 328 0 312 0 325-4 328-3 3-9 3-47 3-40 0-45 0-48-4z m-180-146c-3-6-82-481-80-486 1-2 3-5 6-6s31-6 65-11c56-9 60-10 63-6 3 2 13 60 43 241 22 132 40 241 40 243 0 3-2 6-4 8-5 2-114 21-125 21-3 0-6-2-8-4z m307-91l-5-2-1-206c0-190 0-207 3-209 5-4 207-4 212 0 3 2 3 19 3 207 0 112-1 205-2 206-4 7-10 7-107 7-75 0-99-1-103-3z" horiz-adv-x="1000" />

<glyph glyph-name="i-logo-cadeau-com" unicode="&#xe646;" d="M54 527c-16-16-4-65 29-115 11-17 28-38 38-46l7-5 12 5c46 17 87 59 87 88 0 8-1 10-5 13-6 5-11 5-22 0-19-9-51-49-64-80l-6-13 0 22c0 48-14 93-37 118-13 15-31 21-39 13z m1-163c-4-2-8-6-10-10-4-7-3-9 4-69 8-69 10-77 21-84 6-3 10-4 26-4h18v166l-6 1c-19 3-47 3-53 0z m89-85v-82h19c16 0 19 1 25 5 4 2 9 7 10 11 4 7 20 107 20 121 0 10-7 20-17 23-3 1-17 2-31 3l-26 1v-82z m377 79c0-1-1-11-1-23 0-13-1-22-1-22-1 1-5 3-10 5-32 15-70-6-70-39 0-17 9-30 26-39 12-6 33-6 45 1 10 5 10 5 10 2 1-6 7-10 12-7 3 2 3 8 4 60 0 41-1 58-2 60-3 3-10 4-13 2z m-19-53c12-7 17-14 17-26 0-17-13-29-32-29-12 0-21 5-27 13-6 9-7 23-1 31 5 7 20 15 28 15 3 0 10-2 15-4z m-202 16c-21-6-34-23-34-42 0-28 29-49 59-42 19 4 30 15 22 22-3 2-5 2-13-2-13-7-18-8-29-6-13 4-23 15-23 27 0 16 11 27 27 30 7 1 11 0 22-5 13-6 19-5 19 2 0 11-32 22-50 16z m76-2c-10-5-12-11-7-16 3-2 5-2 13 2 8 4 10 4 17 2 6-2 13-9 11-11-1-1-5 0-9 1-21 6-43-9-43-30 0-22 24-37 45-30 7 3 9 3 11 1 3-4 10-4 12 1 3 5 3 51 0 60-4 13-20 24-35 24-3 0-10-2-15-4z m27-38c12-6 10-24-3-29-16-7-32 8-24 23 5 9 16 11 27 6z m183 40c-14-4-28-16-32-27-2-7-3-23 0-30 3-7 14-19 22-23 19-10 43-6 58 8 6 5 8 9 8 12-1 8-9 8-18-1-9-9-22-12-33-9-9 2-16 8-12 9 1 1 16 8 32 17 33 17 36 20 27 29-11 12-38 20-52 15z m28-16c5-2 8-5 7-6s-13-8-27-15l-26-13v8c0 10 4 18 11 23 12 8 22 9 35 3z m54 14c-10-5-12-11-7-16 3-2 5-2 13 2 8 4 10 4 17 2 6-2 13-9 11-11-1-1-5 0-9 1-21 6-43-9-43-30 0-22 24-37 45-30 7 3 9 3 11 1 3-4 10-4 12 1 3 5 3 51 0 60-4 13-20 24-35 24-3 0-10-2-15-4z m29-41c6-5 8-10 5-17-3-7-14-13-22-11-8 2-14 9-14 17 0 15 19 22 31 11z m39 41c-3-5-3-51 0-60 6-20 34-30 54-18 12 8 14 13 14 48v32l-5 1c-10 3-11-2-11-34 0-27 0-29-4-33-3-2-7-4-10-5-7-2-19 4-22 10-1 3-2 16-2 33 0 23 0 28-3 29-6 2-9 1-11-3z m82 2c-4-5-2-8 13-24 8-9 15-17 15-18 0 0-7-9-15-18-15-16-17-19-13-24 5-4 9-2 24 14l15 17 16-17c8-9 17-16 18-16 3 0 9 5 9 8 0 1-7 9-16 19l-16 17 16 17c9 10 16 19 16 19 0 3-6 8-9 8-1 0-9-7-18-16l-16-17-15 17c-15 16-19 18-24 14z m-5-113c-8-3-15-14-15-21 0-12 13-24 26-24 10 0 20 5 20 10 0 5-1 5-11 1-8-4-17-2-22 4-10 13 7 29 21 22 9-4 12-4 12 1 0 3-2 5-7 7-9 4-16 4-24 0z m48-1c-18-11-17-32 1-41 25-13 50 16 31 36-5 6-8 8-16 8-8 1-12 0-16-3z m26-10c8-8 3-22-9-25-18-4-28 21-11 28 7 3 14 2 20-3z m22 11c-1-1-1-12-1-23 1-19 1-21 5-21 4 0 4 2 5 16 0 13 1 17 4 20 6 4 7 4 12-1 3-3 4-7 4-20 0-14 0-16 4-16 5 0 6 4 6 21 0 13 1 15 4 17 2 1 5 1 9 0 5-2 5-3 5-19 1-16 1-18 5-18s4 2 5 17c0 15 0 18-4 23-5 6-17 9-24 5-4-3-6-3-10-1-6 3-28 3-29 0z" horiz-adv-x="1000" />

<glyph glyph-name="i-loupe-droite" unicode="&#xe647;" d="M530 772c-110-40-185-124-207-236-14-67-7-128 22-197 13-28 17-49 11-51-5-2-39-22-73-44-80-52-168-149-209-228-56-112-37-132 74-78 75 37 225 183 253 246l19 43 71-35c132-67 265-44 371 61 74 73 101 149 92 248-18 204-230 339-424 271z m207-77c128-58 179-201 119-330-42-89-116-135-223-135-131 0-246 113-246 243 0 86 65 186 144 222 57 26 150 26 206 0z" horiz-adv-x="1000" />

<glyph glyph-name="i-loupe-gauche" unicode="&#xe648;" d="M264 813c-182-60-278-235-227-413 16-51 32-77 82-127 109-108 245-131 379-63l72 37 20-44c29-65 183-215 258-252 115-55 133-35 76 79-42 82-132 180-213 233-35 23-69 43-75 45-6 2 0 28 14 59 32 73 34 187 2 259-52 116-156 186-287 192-41 2-86 0-101-5z m193-88c82-38 147-140 147-228 0-90-60-182-146-226-49-25-147-30-200-9-165 64-212 286-87 411 72 70 195 94 286 52z" horiz-adv-x="1000" />

<glyph glyph-name="i-macaron-arbre-genea" unicode="&#xe649;" d="M381 827c-26-6-40-18-50-43-4-9-10-22-13-28-8-13-33-36-45-42-12-6-33-9-74-13-20-2-40-4-45-5-14-3-26-13-34-28-11-20-13-33-12-70 0-30 0-34-5-46-2-8-11-25-18-37-14-25-25-37-55-63-20-18-25-28-23-51 1-20 10-50 20-66 4-6 15-20 24-29 27-28 34-49 29-79-1-8-6-26-11-42-8-24-10-30-10-45 0-21 4-32 20-47 9-9 19-15 64-37 75-37 87-48 122-106 25-41 41-56 66-63 24-6 46-3 98 14 48 17 52 17 100-2 50-20 56-22 81-22 21 0 22 0 37 8 18 9 34 23 52 48 34 45 63 61 123 70 26 4 40 8 51 14 10 6 23 20 28 28 8 17 10 42 4 72-10 54 7 109 45 140 37 30 54 85 37 119-3 6-14 21-24 34-21 26-27 36-33 59-5 18-5 39-1 62 7 37 6 64-3 85-6 13-21 27-37 34-7 3-28 10-46 16-40 12-61 22-80 37-17 14-29 31-42 58-18 37-35 51-59 51-13 0-23-4-53-22-30-17-48-21-76-15-16 3-28 10-49 26-9 7-20 15-25 18-21 10-55 14-78 8z m142-79c101-7 191-49 260-120 87-90 126-210 108-333-21-144-124-267-264-315-119-41-251-24-355 46-148 100-212 283-156 451 52 155 192 261 359 272 6 0 12 0 15 1s18-1 33-2z m-65-46c-130-14-244-100-292-221-36-91-31-195 12-281 49-99 141-169 249-190 28-6 82-8 110-4 84 10 156 46 215 107 27 28 45 53 61 86 80 163 24 357-132 453-64 39-147 58-223 50z m304-239v-75h-220v150h220v-75z m-252-19v-6h-34v-166h34v-12h-46v90h-13c-13 0-13 0-13 5s0 5 13 5h13v90h46v-6z m-106-88v-76h-220v152h220v-76z m358-112v-76h-220v152h220v-76z m-44 284c0 0 8-9 17-18l17-17v37h-17c-9 0-17-1-17-2z m-342-123c9-9 17-17 17-17 1 0 1 8 1 17v17h-35l17-17z m358-112c9-9 17-17 17-17 1 0 1 8 1 17v17h-35l17-17z" horiz-adv-x="1000" />

<glyph glyph-name="i-macaron-marianne" unicode="&#xe64a;" d="M473 836c-19-5-28-9-68-28-42-20-53-24-104-34-64-13-85-22-107-46-11-11-17-20-48-74-12-21-16-26-52-62-43-43-52-53-60-70-14-27-15-52-7-111 7-53 7-74-1-116-9-44-9-74-2-91 7-18 20-35 49-67 38-41 41-46 67-103 34-75 50-86 162-112 47-11 55-14 98-34 54-26 74-32 102-29 20 1 35 6 80 25 41 18 47 20 106 33 67 15 92 25 115 45 17 16 26 28 50 71 22 39 32 52 63 87 37 41 47 60 53 94 4 17 3 24 0 117-1 23 0 39 3 71 5 48 5 70 1 91-6 31-16 46-58 88-36 36-43 45-67 87-44 78-58 88-142 104-47 9-56 12-104 35-24 11-51 23-60 26-23 7-50 9-69 3z m89-57c124-17 238-88 308-194 17-26 40-72 50-102 67-205-25-425-219-523-64-33-128-48-200-48-72 0-133 14-196 45-73 36-130 86-176 155-92 140-92 330 0 470 46 69 102 118 175 155 80 40 167 54 258 42z m-107-35c-16-4-35-21-44-39-7-12-8-32-2-43 1-4 3-7 3-7 0 0-3-1-7-2-5-1-9 0-16 4-11 6-27 11-38 11-11 0-11-1-5-20 2-7 4-13 4-13 0-2-7 0-12 3-3 2-12 7-18 10-41 18-58 6-31-22l11-12-8-4c-11-5-33-28-38-39-4-9-5-19-2-25 1-3 1-6-1-11-3-6-3-16-3-52 0-52 3-43-33-106-15-27-23-43-23-47-1-9 5-14 19-17 11-2 12-2 15-11 2-7 2-9 0-12-2-4-2-5 1-8 2-2 6-4 9-5 3 0 2 0-3-1-5 0-9-1-10-3-2-6 4-18 12-26l8-8-4-9c-8-20-6-47 6-58 7-6 25-12 51-15 16-2 26-5 34-8 5-3 10-6 10-7 0 0 1-18 1-39 1-54 7-85 18-100 16-21 65-32 104-24 19 4 47 18 63 32 44 37 66 51 92 55 20 3 40-2 47-12 5-8-2-8-10 0-8 7-21 9-40 6-29-5-39-11-76-44-13-11-27-23-32-26-11-8-31-14-51-16l-17-1 15-1c8 0 21 1 29 3l14 3 13-13 5 4c13 9 16 11 21 11 3 0 16 2 29 5s24 5 24 5c1 0 5 4 11 9 7 6 12 9 16 9 16 0 69 6 73 8 5 3 6 4 5 15 0 13-2 17-8 17-4 0-4 0 0 4 2 2 5 5 7 8 2 4 3 4 6 2s3-1 5 3c3 8 3 10-5 17-9 8-19 12-27 12-7 0-16 8-30 26-6 7-14 17-19 22l-8 8 8-3c4-2 18-5 30-8 35-7 55-19 65-39 4-8 5-12 5-28v-19l8 4 9 4-5 10c-3 6-6 16-7 22-3 14-11 27-24 37-16 11-30 17-58 23-28 5-49 15-59 25-5 5-5 6-2 5 7-2 43-5 61-5 33 0 73-9 88-19 6-4 9-8 12-16 2-7 6-14 8-17 7-10 11-22 9-33 0-6 0-11 0-11s5 3 9 6c5 4 8 8 7 10 0 2-1 6-2 10-1 6-4 11-12 19-8 9-13 18-22 38-7 14-15 29-18 32-6 8-21 13-37 13-14 0-45 5-66 10-11 3-19 4-26 3l-9-1-7 9c-13 18-18 30-17 40 1 9 9 29 11 29 1 0 3-8 6-17 4-14 6-18 12-23 6-6 8-6 16-5 5 0 12 3 17 7l9 6v-5c0-6 18-19 30-20 4-1 8-1 8 0 0 2-19 18-29 24l-5 4 4 3c3 2 6 4 7 4 1 0 4 2 6 4 3 2 6 4 6 3 1 0-2-11-4-19-1-5-1-5 3-2 3 2 6 6 7 10 2 7 3 7 11 7 5 0 9 1 9 2 1 2-8 5-16 5-5 0-5 0 2 10 4 5 8 10 9 10 0 0 4-2 7-4 6-3 6-4 8-21 1-15 1-18-2-21-8-8-2-15 12-12 5 1 11 1 14 0 4 0 5 0 5 4 0 8-13 10-22 3-2-1 0 1 4 5 3 3 6 7 6 9 0 2 1 3 3 3 3 0 15-8 15-10 0-5 8-6 21-4 14 3 17 1 12-7-2-3-9-7-15-10-8-3-12-6-14-11-5-8-4-10 4-10 4 0 7-2 13-9 9-13 13-22 13-28 0-4 3-8 8-14 9-7 9-8 11-26 1-15 1-20-2-30-1-7-2-12-2-13s3 1 6 3c5 4 5 4 4 25-2 34-3 41-7 46-5 5-8 13-8 20 0 6-5 11-19 19l-10 6 11 1c17 0 22-3 36-24s16-29 11-42c-4-12-4-19 0-22 3-2 3-2 3 4 0 4 2 11 4 16 7 16 5 28-12 54-12 19-16 21-38 21-9 0-16 0-16 1s4 2 9 4c12 3 20 10 23 20 2 7 2 8 0 11-2 3-6 3-18 2-15-1-16 0-19 4-3 4-3 4 9 6 13 3 24 9 24 14 0 9-14 24-25 28-3 2-8 3-10 4-3 1-3 2 4 3 25 6 39 26 41 60l1 20-7 1c-5 1-9 0-19-5l-12-5 4 13c9 27 12 113 4 148-5 23-30 71-46 88-3 3-11 9-18 12-14 6-29 18-51 39-8 8-23 19-32 26-14 9-20 12-33 14-14 3-18 3-35 1-36-5-40-5-56 2-14 6-18 7-29 4z m35-16c14-6 23-7 52-3 14 2 29 3 33 2 10-2 36-21 58-42 22-21 40-35 53-41 5-2 12-7 16-12 22-23 43-89 45-136 1-18 1-23-3-34-5-12-5-13-12-14-5 0-11 2-20 7l-13 7-5-5c-9-10-11-17-11-39 0-12 1-25 1-31 2-11 1-11-6 2-6 12-7 31-1 47 5 14 4 34-2 40-2 2-6 4-9 5l-4 1 4-6c6-8 7-20 2-38-6-24-2-40 14-60 10-13 9-13 12-11 1 0 0 6-2 14-5 18-7 49-4 60 1 5 4 11 7 14l4 5 7-4c9-6 15-18 17-30 1-5 0-17-2-29-3-22-4-31-1-35 2-3 3-2 6 3 12 16 30 29 41 29 6 0 8-6 7-21-2-19-15-34-41-44-16-6-17-11-3-11 18 0 34-11 35-24 0-10-21-15-40-9-7 3-10 3-12 1-3-2-3-1-3 7 0 11-3 18-12 22-3 2-6 3-7 3s-5-3-10-8c-10-9-37-21-44-19-9 2-17 11-17 18 0 9 6 18 15 22 6 3 11 3 26 2 10 0 19-1 21-2 3-1 3 0 3 4-2 7-12 12-29 15-28 4-66 24-87 45-6 6-16 18-21 26-6 8-15 20-21 26l-10 11 5 1c3 1 9 4 13 7 10 8 13 8 13-1 0-4-2-8-5-11-6-6-6-13 0-19 5-5 6-5 17-4 7 0 15 2 20 6 16 9 30 6 44-10 7-8 16-21 37-54 2-3 3-2 3 7 0 11 0 12-12 23-6 6-17 19-23 27-19 25-27 28-48 19-13-6-34-9-36-5-1 2 0 4 3 7 3 2 8 8 12 12 7 7 7 7 3 10-5 4-16 4-29 0-14-4-34-4-50 1-19 5-35 8-51 8-17 0-16-1-5 12 10 11 44 17 60 11l9-3-5 5c-8 9-15 10-32 6-8-2-21-6-29-9-9-4-16-6-21-6-8 1-9 1-10-5-2-6-3-7-13-8-12-1-12-1-20 7-6 5-10 8-14 8-9 0-17 6-32 21-10 10-20 18-35 27-11 6-21 12-22 12-5 0 2-6 16-15 14-10 37-29 30-26-2 1-13 8-25 16-11 8-22 15-23 15s-3 3-4 6c-4 9 1 19 13 32 18 19 38 24 51 12 7-5 18-12 21-12 1 0-3 5-8 10s-9 11-9 12c0 1-2 3-5 4l-6 2 5 1c3 2 12 4 20 6l15 4 3-5c7-11 24-26 39-33 8-4 15-8 15-9s-1-3-3-5c-2-2-3-8-3-13 0-8 1-11 5-15 5-5 8-6 20-3 17 4 35 6 40 4 3-1 7-5 9-9 3-4 10-10 21-17 9-6 18-12 19-13 1-2 6-3 10-3h8l-18 20c-30 31-41 47-48 67-6 17-5 33 1 41 2 1 17-9 24-16 14-15 23-39 28-75 2-12 4-23 5-24s6-4 10-5c10-3 24-14 28-21 2-4 5-7 7-7 5 0 4 3-4 13-9 11-12 18-14 27-2 11 2 18 8 18 15 2 21-8 23-41 1-21 2-23 6-28 5-6 14-11 18-11 5 0 0 17-8 29-6 8-9 16-11 24-2 7-4 16-6 20-2 6-3 12-3 21 0 12 4 26 7 26 4 0 15-9 20-16 11-16 13-25 15-70 2-44 4-56 13-67l4-7 0 21c0 23 3 31 12 36l6 3-6-1c-3-1-9-4-13-7l-8-6-1 6c0 4-1 19-2 34-1 39-8 57-31 79l-9 9-5-5c-4-6-7-15-10-30-1-7-2-8-7-7-9 1-16-5-22-19-8-19-11-17-15 10-7 39-17 63-34 81-9 9-27 19-30 17-1-1-3-6-4-12-2-11-1-27 3-42 1-5 1-5-5-3-4 1-11 2-15 2-17 0-57 17-74 32-9 8-19 25-19 32 0 11 33-2 53-20 6-6 11-10 11-9s-3 6-6 11l-6 9 17 2c9 0 21 1 28 1s20 2 30 5c23 6 31 6 45 0 6-3 23-10 38-16 23-10 29-11 44-12 14-1 18-2 26-8 5-3 13-12 18-19 7-11 9-12 11-9 6 5-7 26-20 31l-6 3 8 1c6 1 8 2 11 7 1 3 3 8 4 9 1 2 2 4 2 4 0 1-12 1-26 0-15 0-38 0-51 1l-25 1-10 10c-5 5-10 11-10 13s6 6 13 9c14 7 16 7 31 1 4-2 0 9-5 15-6 4-16 5-24 2-2-2-9-7-14-11-14-12-28-18-51-22-17-4-18-4-30 0-16 4-31 12-36 19-4 5-4 5 0 16 5 14 15 29 22 33 3 2 9 4 14 5 9 1 12 0 30-8z m-179-83c7-5 16-17 15-18-1 0-6-2-11-5l-11-5-7 6c-9 6-14 16-12 22 2 8 13 8 26 0z m153-66c5-3 14-13 14-17 0-1-2-1-5 0-8 3-16 2-25-1-26-11-32-13-35-10-5 5-4 18 2 23 11 10 34 13 49 5z m-141-76c28-17 46-26 54-28 7-2 27-4 50-5 42-2 60-5 81-16 14-7 27-19 34-32l4-8-4 2c-9 5-19 6-21 2-2-3-3-2-10 5-4 5-10 10-15 12-13 5-45 9-61 8-18-1-24 0-45 13-14 9-18 11-25 10-16 0-26 5-51 27-5 4-14 9-24 12-9 3-17 6-18 6 0 1 1 4 4 7s4 7 4 8c0 1 0 2 1 2s19-11 42-25z m-44-4c18-5 28-10 66-40 8-6 11-7 21-7 11 0 28-6 28-10 0-4 24-32 31-35 4-2 7-4 6-4 0-1 2-3 5-5 8-5 10-12 8-28 0-7-1-16 0-19 4-13 18-19 26-11 8 8 13 24 10 30-3 6-5 3-4-7 1-17-9-23-19-11-5 7-5 7-4 25 1 21 0 23-13 25-6 1-6 2-1 2 9 0 17-5 19-15 4-13 5-13 22-13 12 1 16 0 16-1 0-2 2-3 6-3 5 0 5 0 6 14 1 13 2 15 7 20 23 23 52-18 48-67-2-30-17-47-55-60l-15-5-5 4c-3 2-6 3-6 2 0-5 5-12 9-13 5-2 36 12 47 21 11 8 11 9 10-3-1-14 7-65 12-81 5-16 12-26 28-37 17-13 28-29 39-57 5-13 12-28 15-33 5-7 5-9 3-8-7 3-31 3-43 1-26-5-50-18-74-42-18-17-32-26-53-33-15-5-18-6-48-6-24 0-33 1-37 3-11 6-22 17-27 27-10 21-15 80-8 99 2 6 11 16 27 34l25 25-11 1c-6 0-23-2-38-4-36-6-52-6-79 0-12 2-24 5-26 5-8 2-12 12-11 28 1 12 2 16 9 25 4 7 7 13 6 15 0 1-6 4-13 7-13 4-15 9-9 14 2 2 6 2 20-1 25-5 32-4 24 4-5 4-14 9-29 14-12 4-13 5-15 13-4 13-4 13 6 12 9 0 27 5 27 8 0 2-9 7-16 8-4 1-16 1-29 0-20-3-22-3-24 1-2 2-2 6-2 8 3 9 18 38 34 65 18 31 20 35 23 57 3 20 10 45 13 45 1 0 7-1 12-3z m153-69c15-7 30-12 41-12 7 0 13-2 22-7 11-5 12-6 10-9-1-3-3-3-5-2-5 3-12 2-16-3-4-6-5-6-11-1-8 9-22 15-34 16-12 2-19 6-24 17-3 5-3 5 3 5 3 0 10-2 14-4z m169-72c8-5 21-11 28-13 12-4 15-7 7-7-5 0-15-9-19-16-2-3-3-8-3-11v-6l-5 6c-7 8-16 27-21 39-2 6-4 13-5 15-2 4-2 4 18-7z m8-146c26-9 52-14 77-16 28-2 35-4 42-13 5-7 4-9-2-4-9 8-36 14-76 17-27 2-39 6-52 16-6 5-4 5 11 0z m28-156c4-1 11-5 14-7 3-3 8-5 13-5 10 0 17-5 15-13-1-4-3-5-8-5-11 0-21 4-33 13l-11 8h-42l-10-8c-5-5-11-9-12-9-3 0 15 16 24 20 15 7 36 10 50 6z m-2-25c7-4 10-6 8-7-1-1-10-2-19-3-19-1-27-4-38-14-6-6-8-7-25-8-10-1-22-3-28-4l-10-3 12 12c12 11 13 12 22 12 14 0 28 5 35 11s24 13 29 12c2-1 9-4 14-8z m-322 521c-3-4-2-5 3-11 3-4 8-11 12-16 5-8 7-9 13-9 3 0 10 2 14 4 7 4 10 4 22 3 8 0 19-2 24-5l11-4-2 5c-12 23-27 26-53 11l-10-6-3 4c-4 7-20 24-24 26-3 2-5 1-7-2z m-44-96c-11-5-11-7-3-10 8-2 18-14 18-19 0-3 2-6 6-8s7-5 7-9c2-7 2-7 17-4 12 3 12 3 17-2 5-5 8-5 20-5l14-1-13 12c-14 14-37 26-51 28-9 1-10 1-11 8-1 4-1 7-1 8s7 1 14 2c18 1 12 4-9 4-12 0-19-1-25-4z" horiz-adv-x="1000" />

<glyph glyph-name="i-mariage" unicode="&#xe64b;" d="M399 779c-41-10-67-53-56-94 9-36 35-69 76-97 16-11 52-30 70-36l9-4 20 9c66 28 110 67 130 114 4 11 5 16 5 32 0 17-1 20-6 32-8 17-22 31-39 39-12 5-15 6-32 6-15 0-21-1-30-5-22-8-41-31-47-54l-2-9-2 8c-4 22-25 47-47 55-12 5-37 7-49 4z m-95-218c-53-7-102-25-145-54-27-18-68-58-85-84-24-37-40-75-48-117-6-29-7-84-1-113 22-121 115-219 235-250 61-16 130-12 190 9 8 3 25 11 38 17 74 38 130 103 156 181 12 36 15 56 15 98 0 29-1 40-5 58-8 42-23 79-47 114l-12 19-29-15c-16-9-33-18-38-20l-8-5 5-7c20-27 34-53 42-81 23-81 1-166-60-226-21-21-36-32-64-45-66-32-140-32-206 0-28 13-43 24-64 45-90 89-92 230-5 321 35 36 81 62 130 70 20 4 64 4 84 0l15-2 21 19c12 11 27 25 34 33l12 12-11 5c-20 7-39 12-58 15-22 4-71 5-91 3z m320 0c-51-6-102-25-145-54-27-18-68-58-85-84-24-37-40-75-48-117-6-29-7-84-1-113 7-41 28-91 52-124l11-16 31 23c16 13 31 25 33 26 2 2 1 5-7 15-47 68-54 155-18 230 32 67 98 116 171 129 21 4 63 4 84 0 74-13 139-62 171-129 42-89 25-192-46-262-21-21-36-32-64-45-40-19-83-27-124-23-12 1-27 3-33 5l-10 3-72-62 5-3c30-15 88-27 131-27 52 0 100 12 148 36 74 38 130 103 156 181 12 36 15 56 15 98 0 29-1 40-5 58-8 42-24 80-48 117-17 26-58 67-85 84-64 43-142 62-217 54z" horiz-adv-x="1000" />

<glyph glyph-name="i-marianne" unicode="&#xe64c;" d="M389 836c-30-4-51-19-58-42-9-26-29-53-51-67-17-11-30-14-95-19-33-3-39-4-49-11-22-15-35-52-31-93 2-24 0-36-9-56-9-20-27-48-36-58-4-4-14-13-22-19-22-19-28-25-32-37-3-7-3-27-1-40 5-20 14-43 24-57 3-5 10-12 17-19 17-15 25-28 30-44 2-6 3-10 3-21 0-18-1-22-12-54-4-13-9-28-9-33-5-25 0-44 15-59 13-13 29-22 78-45 29-13 47-24 64-38 17-13 29-30 50-65 15-24 17-28 28-38 30-31 64-33 134-9 52 18 52 18 110-5 27-11 41-15 56-18 28-4 53 2 76 21 9 8 19 19 31 35 11 15 32 36 42 43 16 10 34 18 54 22 5 1 19 3 30 5s24 4 28 5c33 9 53 32 56 65 1 11 0 23-4 43-3 17-3 41-1 56 4 19 10 36 19 51 8 13 16 22 28 32 36 30 53 80 39 116-4 9-8 15-26 36-24 28-27 34-33 57-6 25-6 35-1 66 3 17 4 20 4 39-1 18-1 22-3 30-8 33-27 46-89 63-37 10-57 19-78 36-17 14-30 30-43 57-9 20-16 30-25 38-14 13-29 18-47 14-8-2-15-6-29-14-22-14-41-23-56-25-13-2-40 2-53 9-8 4-14 8-32 22-16 13-25 18-40 22-16 4-36 5-51 3z m157-82c49-6 94-20 138-42 100-51 173-139 203-245 5-17 9-40 12-58 2-20 2-73 0-92-7-48-19-88-41-131-37-74-98-134-174-173-44-22-89-36-139-42-21-2-69-2-90 0-51 6-96 20-140 42-100 51-173 139-203 245-5 18-9 40-12 59-2 19-2 72 0 92 9 65 32 124 70 178 53 76 137 134 229 157 23 5 44 9 75 11 11 1 58 0 72-1z m-108-48c-73-13-137-46-188-96-60-58-94-127-104-210-2-14-2-61 0-75 2-17 5-32 9-47 24-96 89-178 181-225l15-7 0 6c1 3 1 15 1 28l0 22-4 7c-7 14-24 35-51 65-15 17-45 48-53 55-5 4-5 5-5 10 0 4 0 6 3 9 4 5 8 8 15 10 6 2 7 2 10 0 11-4 31-19 81-58 36-30 53-43 64-49 4-2 10-6 12-9 16-15 32-54 48-112l3-15 11 0c17-1 29-1 28 1 0 3-37 111-41 122-5 12-10 19-21 29-23 22-71 59-123 93-10 6-18 12-18 12 0 1 2 1 3 2 2 0 9 2 15 4l11 3 11-10c22-21 51-43 76-58 24-14 31-19 38-26 14-14 21-28 28-58 1-6 3-15 5-20 3-14 22-55 37-81 5-9 7-11 9-11 3 0 29 5 40 7 5 1 9 3 9 3 0 2-19 26-32 40-5 6-16 18-24 27-21 21-23 25-30 58-10 45-18 58-49 90-18 17-33 30-54 46-7 5-13 10-13 11-1 0-2 0-4-1-4-1-15-1-19 0l-2 1 0 19c1 10 2 32 4 49 9 95 11 141 5 171-2 12-2 21-1 38 3 30 10 49 25 68 3 5 17 19 30 32 13 13 25 25 26 28l2 4-3 0c-1 0-9-1-16-2z m135-15c15-23 32-47 39-57 4-5 8-11 9-14 2-8 3-29 2-51-2-31-6-69-10-86-6-20-4-46 3-69 3-12 8-20 15-29 18-21 39-68 41-90 0-7 1-8 2-8 2-1 9-2 17-3 45-8 69-23 70-44 0-6-1-8-5-16-6-13-15-25-41-56-30-37-39-50-45-64-2-6-2-8-3-27 0-12 0-22 0-22 0 0 4 2 9 5 84 47 145 126 168 216 8 30 11 52 11 87s-3 56-11 86c-31 118-124 213-243 247-11 4-34 9-37 9 0 0 3-6 9-14z m-43-80c-7-2-14-6-16-8s-4-8-2-13c2-5 3-17 2-26l-1-9 3-3c4-4 8-4 4-1-3 3-3 8 0 18 1 5 2 10 2 12l-1 4 4-2c8-2 20-1 30 3 4 2 9 5 9 6 0 2-2 1-7-1-2-2-6-3-8-4l-4-1 2 3c4 6-8 13-17 9-2-1-4-3-4-4-1-1-1-2-2-1-1 1 1 7 5 9 2 1 4 1 17 1 8 0 14 0 14 0 0 1-9 6-13 8-5 1-11 1-17 0z m-145-9c-3-13-4-41-2-54 4-33 20-68 41-95l6-6 0 6c1 7 1 7-5 15-17 26-30 67-35 114-1 9-2 20-3 24l0 6-2-10z m106-110c-1-1-5-1-9-2-6 0-6-1-4-2 3-2 15-3 26-3 5 0 10 0 11 0 2-3-10-7-21-7-2 0-5 0-6-1-2-1 14-3 19-2 6 1 14 5 18 10l3 4h-4c-3 0-6 1-8 2-3 2-3 2-7 1-5-2-9-2-12 0-3 1-4 1-6 0z m82-18c-8-21-30-36-62-42-5-1-9-2-9-3 1 0 26 2 33 4 22 6 37 19 40 37 2 9 1 10-2 4z m-153-60c0-29-3-62-7-79-4-15-11-27-20-33l-2-2 2 1c14 5 36 21 40 31 5 8 10 35 10 47 0 10-1 14-6 26-4 7-13 20-16 24-1 0-1-6-1-15z m148 0c0-4-4-18-6-24-2-3-6-8-11-13-9-10-13-16-17-25-4-8-4-17-1-24 2-4 20-28 21-28 0 1-1 7-2 14-3 19-3 32-2 38 1 3 3 6 9 13 9 9 11 12 12 25 1 9 0 24-2 25-1 1-1 1-1-1z m7-2c-2-4-1-22 1-33 8-41 33-70 74-86 14-5 13-3-5 5-19 10-31 17-36 23-4 5-4 5-6 40-1 37-4 44-15 50-9 5-12 5-13 1z m-88-53c-5-5-7-14-5-20 1-2 4-5 7-7 5-4 12-13 16-22l3-6 0 4c-1 6-5 13-13 25-7 10-8 14-6 23 2 6 2 6-2 3z" horiz-adv-x="1000" />

<glyph glyph-name="i-maya" unicode="&#xe64d;" d="M473 843c-3-1-15-2-25-3-65-8-138-32-196-67-23-14-69-47-69-49 0-1 42-49 93-107l92-105 6 4c3 2 7 5 7 7 1 1 2 15 1 30l0 29 51 1 1 23 0 22h33l2 64c1 57 1 64-2 72-4 9-9 13-16 11-4-1-5-3-5-8 0-6 2-9 7-14 11-11 10-17-3-17-16 0-29 16-29 35 0 8 1 12 4 15 9 11 31 15 43 9 17-9 20-22 20-106v-63h38l0 75c1 73 1 74 6 83 5 9 16 16 27 16 9 0 23-8 28-16 5-9 5-24 0-31-11-15-35-22-38-12-1 1 3 4 8 7 11 7 14 14 11 20-5 9-17 9-22 0-1-2-2-29-2-71v-67h40l0-23 1-24 41-1v-40l9-3c5-2 10-3 11-2 2 1 173 201 174 203s-36 27-59 40c-52 29-115 50-177 59-20 3-98 6-111 4z m272-239l-103-112-13 9c-23 18-59 31-81 31h-10v24l-49-1-1-11 0-12-12-4c-20-8-42-22-58-38-25-25-37-50-41-86l-2-20h-39v-66l48-1 5-12c11-27 32-50 55-61 9-4 15-5 33-6 29-1 47 2 67 12 26 13 38 30 46 64 3 13 4 21 3 33-1 19-5 29-14 39-9 9-28 14-40 10s-14-9-14-40v-26l-7-7c-13-10-34-14-46-8-6 3-17 14-21 22-9 19-12 56-6 75 8 26 28 44 56 55 46 18 102-2 131-45 9-13 22-39 22-43 0-2 6-3 21-3l20-1 1-34 0-35h-37l-2-15c-4-45-28-79-71-101-11-5-27-11-34-13l-14-4v-41h-76v14c0 15-1 16-12 16-13 0-47 8-60 15-7 3-14 6-14 6-2 0-184-211-184-213 0-2 21-18 24-19 2 0 35 39 78 92l74 92 12-4c6-2 13-5 15-6 3-1 3-4 3-23v-22h44l0-22 1-23 39-1v-71c0-70 0-70-5-77-3-6-5-7-12-7-17 0-17 20 1 28 8 4 13 11 9 15-3 3-19-6-26-16-17-21-12-43 10-45 17-2 32 8 37 24 1 5 2 35 2 79v70h42v-75c0-70 0-77 4-84 5-11 11-15 22-15 19 0 30 12 30 32 0 9-1 11-9 19-6 6-11 9-14 9-9 0-8-5 3-17 5-6 10-13 10-15 0-9-17-13-24-6-4 4-4 7-4 80v76l31 1 1 20 0 19h38v68l6 1c3 1 11 4 16 8l10 7 67-69c38-37 79-80 93-94l25-25 33 31-194 185 8 8c8 8 13 21 11 30l-1 6h46l0 22 1 21 45 1v38h71c67 0 72 0 79-4 8-4 10-7 10-15 0-7-8-12-16-10-6 1-16 11-16 16 0 4-9 8-12 6-6-6 7-23 22-31 16-8 28-7 36 4 9 14 3 35-15 44l-10 5-149 1v40h76c48 0 78 1 83 2 12 4 19 12 19 22 0 11-5 21-13 27-4 3-8 4-18 4-11 0-13-1-19-6-12-11-15-23-7-23 2 0 8 4 14 10 11 11 15 12 20 7 5-6 6-13 2-19l-4-5-79-1-78 0v30h-40v38h-68l-6 9c-3 5-7 9-8 10-2 0-2 1-1 2 1 2 185 162 225 197 1 1-39 40-42 40 0 0-48-50-105-112z m-639 31c-47-66-77-139-89-219-5-32-5-106 0-138 14-88 47-165 102-235l15-19 6 4c151 128 210 178 210 180 0 1-3 4-6 7l-6 6-30-1-30 0v52h-46v32l-50 1c-69 2-86 1-93-4-7-5-9-12-5-16 4-5 13-2 22 6 5 4 9 7 10 7 3 0 6-5 6-13 0-21-38-36-53-21-7 6-12 23-10 32 0 4 4 10 8 15 9 11 23 13 103 13h64v38l-76 0c-70 1-78 1-84 5-12 5-17 15-16 29 1 10 2 13 8 19 8 8 22 12 33 9 14-5 26-25 22-37-2-5-6-3-11 4-8 13-17 16-24 9-5-6-5-11 0-16 4-4 7-4 74-4h70v38h48v42h41l4 8c3 6 3 9 2 11-2 3-206 171-208 171 0 0-5-7-11-15z" horiz-adv-x="1000" />

<glyph glyph-name="i-membres" unicode="&#xe64e;" d="M429 711c-48-27-78-86-72-139 8-72 68-125 143-125 76 0 135 53 143 126 14 113-114 195-214 138z m-286-128c-16-8-39-31-50-52-73-123 55-261 185-200 134 66 89 268-60 267-25 0-59-7-75-15z m638-105c-33-14-55-53-55-98 0-25 7-39 30-62 43-43 100-43 143 0 23 23 30 37 30 62 0 46-22 84-57 99-37 15-54 15-91-1z m-417-88c-33-28-50-58-58-102-3-23-17-41-50-70l-45-39-53 52-52 52-24-18c-41-30-66-88-62-147 4-59 17-78 82-111 37-20 56-24 115-24 63 0 76 2 119 27 43 24 51 33 61 67l10 39 74-3c62-4 80-1 118 16 62 26 82 49 89 104 8 68-3 104-43 145l-35 38-110-110-54 54-54 53-28-23z m358-152c-27-28-33-49-30-100 3-34 7-43 33-60 67-45 151-44 209 2 24 19 26 26 26 74s-3 56-25 80l-27 28-38-38-37-37-44 37-44 37-23-23z" horiz-adv-x="1000" />

<glyph glyph-name="i-moustache" unicode="&#xe64f;" d="M324 481c-39-15-69-34-117-77-61-54-95-74-134-77-29-2-31-1-36 12-8 21-7 23 9 25 12 2 15 4 15 18s-3 16-14 17c-19 2-26-9-30-43-6-69 35-114 123-132 130-28 267 20 339 119l14 19 9-14c16-28 76-78 115-97 67-34 150-44 227-27 88 18 130 63 123 132-4 34-11 45-30 43-11-1-13-4-13-17s2-16 14-18c16-2 17-4 9-25-5-13-6-14-36-12-39 3-73 23-136 79-59 53-108 79-158 82-49 4-72-3-118-36-7-6-11-5-21 4-34 31-104 42-154 25z" horiz-adv-x="1000" />

<glyph glyph-name="i-news" unicode="&#xe650;" d="M145 731c-14-4-25-11-32-21-6-8-11-27-11-39v-9h-16c-31 0-45-6-51-23-3-8-3-25 4-287 7-274 7-279 12-303 8-42 21-70 37-86 17-16-26-15 449-15h426l-16 9c-18 11-42 33-54 50-11 16-23 41-29 62l-5 16-1 275c-1 301 0 280-12 291-12 11 10 10-367 11l-352 0 2 14c1 17 5 23 16 29 8 4 12 4 357 5 305 0 350 0 359-3 14-4 27-16 33-29l5-11 1-282c1-252 2-284 5-298 9-46 22-76 43-97 16-17 38-28 24-12-23 25-41 79-46 142-1 14-2 128-2 283 0 229 0 262-3 272-6 24-21 41-43 52l-13 6-355 0c-301 1-357 0-365-2z m620-156c13-3 23-10 28-17 3-6 4-18 1-24-3-5-12-10-21-10-6 0-7 0-8 10-1 11-7 17-16 19-8 2-20-2-24-8-4-5-4-19-1-26 4-6 7-8 33-21 19-9 26-14 33-22 25-27 13-69-23-81-12-5-44-5-56-1-32 11-37 54-6 57l9 2v-7c0-19 8-30 24-32 19-1 30 7 30 24 0 14-5 18-31 31-28 13-37 20-43 32-25 45 17 88 71 74z m-576-57l38-58 1 44c0 26-1 46-2 47s-6 2-11 2l-9 2v21h72v-11c0-11 0-11-6-11-3 0-8-1-11-2l-5-2v-158h-27l-80 122-1-47c0-54 0-53 14-53h8v-22h-72v22h7c4 0 9 1 11 2 4 2 4 5 4 68v66l-5 2c-3 1-8 2-11 2-6 0-6 0-6 11v11h53l38-58z m228 39c0-11 1-23 1-27v-8h-24l-1 8c-3 20-6 22-32 22h-19v-52h58v-24h-58v-60h22c12 0 24 1 27 2 5 2 8 8 10 21l1 7h24v-9c0-4-1-17-1-27l-2-18h-141v21l10 1c6 1 11 3 12 4 1 2 2 31 2 65 0 48-1 63-3 66-1 2-6 4-12 4l-9 2v21h133l2-19z m83 8v-11h-7c-9 0-13-2-13-6 0-6 28-97 29-94 1 4 33 118 33 119 0 1 6 1 14 1h13l18-61c10-34 18-62 18-63 1-1 27 93 27 97 0 5-5 7-14 7-6 0-6 0-6 11v11h70v-22h-7c-12 0-10 5-43-107l-15-54-31-1-2 6c-1 4-8 29-16 56-8 27-15 50-16 52s-8-24-17-55l-16-58h-32l-23 78c-16 54-24 78-27 80-2 2-6 3-9 3-6 0-6 0-6 11v11h78v-11z m278-263v-16h-672v32h672v-16z m10-85v-17h-672v34h672v-17z m16-91l-1-17h-672l-1 17 0 16h674l0-16z m30-83v-17h-672v34h672v-17z" horiz-adv-x="1000" />

<glyph glyph-name="i-no-voir" unicode="&#xe651;" d="M400 683c-24-7-61-19-82-27-142-62-294-222-294-310 0-37 33-99 78-149 24-25 42-47 42-50 0-3-27-23-61-45-48-33-60-45-57-58 4-32 33-26 102 20l66 44 55-34c85-53 154-72 255-72 70 1 94 4 142 22 159 56 330 224 330 322 0 37-33 99-78 149-24 25-42 47-42 50 0 3 27 23 61 45 48 33 60 45 57 58-4 32-33 26-102-20l-66-44-51 32c-107 67-249 93-355 67z m193-131c19-9 45-25 58-36l23-20-36-24-37-26-31 15c-16 8-40 18-53 21l-23 5 12-20c8-11 14-33 14-47 0-24-5-31-46-58-48-32-44-31-100-8-12 5-13 2-9-29 4-34 3-36-31-57-31-20-35-20-44-8-5 6-12 28-15 48-26 179 155 318 318 244z m132-168c31-210-212-345-376-208l-23 20 36 24 37 26 34-18c65-33 143-15 181 44 17 25 20 40 20 80l0 51 32 21c31 20 35 20 44 8 5-6 12-28 15-48z" horiz-adv-x="1000" />

<glyph glyph-name="i-objectif-01" unicode="&#xe652;" d="M102 805c-37-10-66-40-74-77-3-15-3-733 0-748 8-37 37-67 75-77 10-3 59-3 382-3s372 0 382 3c38 10 67 40 75 77 3 15 3 733 0 748-8 37-37 67-75 77-17 4-748 4-765 0z m715-76c30-8 54-32 62-62 2-8 3-29 3-92v-83h-160l-5 10c-21 41-70 87-118 110-37 18-70 25-115 25-45 0-78-7-117-26-45-21-94-67-115-108l-5-9h-149l0 87 1 86 7 14c11 23 32 41 56 48 14 4 641 4 655 0z m-287-171c56-14 104-54 129-107 14-29 20-70 15-101-6-44-25-82-57-112-18-17-29-24-52-35-55-26-117-24-170 4-98 51-132 172-75 265 30 48 80 81 138 90 16 3 53 1 72-4z m-80-40c-15-4-39-15-47-21-4-3-4-3 3-3 22 0 66-19 85-36 15-14 20-24 19-42s-8-30-21-43c-15-15-30-22-48-22-16 0-24 4-43 18-19 14-44 51-44 64 0 7-4 2-8-10-27-82 20-165 104-188 17-5 52-5 71 0 30 7 60 26 80 50 11 14 24 39 28 57 5 17 5 52 0 70-14 52-55 93-108 106-21 5-50 5-71 0z" horiz-adv-x="1000" />

<glyph glyph-name="i-parfum" unicode="&#xe653;" d="M322 708c-25-8-40-27-40-51 0-11 4-23 9-29 3-3 1-4-32-4-39-1-43-2-53-13-8-9-10-14-10-25 0-14 6-25 19-32 6-3 9-6 7-6-5 0-40-18-57-29-63-41-107-98-130-166-10-30-15-56-16-89-5-101 32-195 99-253l16-15h420l21 20c60 61 90 146 86 247-1 49-11 87-32 130-32 63-82 112-148 145l-23 12 5 3c12 6 21 20 21 33 0 10-7 23-14 29-10 7-23 9-59 9h-30l5 11c3 6 6 14 6 16 0 6 4 7 27 8 70 4 155-26 247-88 27-18 68-49 69-52 1-1-1-7-5-12-10-17-15-33-15-56 0-23 5-40 16-55 7-12 59-70 72-82 21-20 41-27 71-27 17 0 24 1 34 5 46 15 76 54 79 100 3 36-5 52-53 106-40 44-51 53-74 60-17 5-44 6-61 1-11-3-29-12-37-17-3-2-7 0-21 12-60 47-127 87-183 109-22 8-58 18-79 22-23 4-73 5-86 2-8-2-9-2-13 4-9 10-24 17-40 18-7 1-15 0-18-1z" horiz-adv-x="1000" />

<glyph glyph-name="i-perse" unicode="&#xe654;" d="M252 678c-35-10-66-41-72-73-2-9-1-14 3-33 7-26 7-58 3-92-1-11-3-32-3-47 0-30-1-34-13-39-18-9-53-8-98 1l-20 5-12-6c-28-13-37-32-23-46 9-10 18-11 37-4 23 8 53 6 100-5 34-8 31-7 34-19 6-27 18-44 52-74 53-46 64-64 55-86-4-9-19-25-34-36-15-10-58-36-90-53-32-17-39-24-27-27 7-3 62-2 98 0l30 1 0 10c2 20 23 50 41 58 18 8 47 44 67 84 5 9 9 17 9 18 0 0 8-2 18-3 12-3 28-4 47-4 26 0 31 1 47 6 22 7 51 21 73 37 26 19 40 26 54 27 11 2 12 1 19-5 8-8 11-18 11-35 0-10 1-14 8-25 14-25 34-40 58-46 5-1 19-3 32-4 46-5 69-12 82-27 14-18 8-36-19-59-9-7-23-21-32-30-18-19-18-20 5-20 39 0 94 15 103 29 8 12 3 45-11 73-9 18-17 27-65 78-31 33-45 50-44 52 0 2 2 7 4 12 3 7 4 17 5 39 0 26 1 29 4 28 2-1 15-2 29-2 21 0 29 1 45 5 37 10 71 28 98 51 24 19 30 35 22 52-6 13-22 25-63 48-46 27-65 39-81 54-41 39-29 68 36 84 11 3 26 5 34 6l14 2 0 9c-2 12-9 22-20 29-9 5-29 5-43 0-17-6-38-20-53-37-25-25-37-51-37-79 0-28 8-39 50-64 41-25 63-51 65-80 0-12 0-13-6-19-8-10-20-14-42-15-18-1-57 2-61 5-2 0-5 5-7 10-11 22-33 39-61 50-23 8-42 11-72 9-41-1-66-10-100-35-22-15-36-22-50-23-15-2-23 0-32 8-6 5-8 9-10 17-6 23-29 54-64 88l-22 20 4 12c9 37 8 55-4 79-9 15-29 38-42 47-19 11-43 15-63 9z m331-471c-10-9-14-29-8-49 6-22 3-39-7-48-3-3-14-8-25-13-27-11-40-19-53-31-8-9-10-12-10-16 1-5 3-7 9-10 24-12 92-12 105 0 2 2 4 8 5 15 0 8 5 23 16 49 26 67 27 82 7 95-19 12-30 15-39 8z" horiz-adv-x="1000" />

<glyph glyph-name="i-perso" unicode="&#xe655;" d="M427 804c-48-13-124-97-134-148-10-57 1-114 35-163 76-117 268-117 344 0 58 86 51 177-19 253-61 65-135 85-226 58z m-50-457c-64-24-108-60-140-117-28-47-31-64-36-177l-3-125h604l-3 125c-5 118-7 130-38 181-21 34-54 67-88 87-47 30-64 35-155 37-66 2-116-1-141-11z" horiz-adv-x="1000" />

<glyph glyph-name="i-perso-tour" unicode="&#xe656;" d="M368 786c-248-70-390-325-314-566 42-134 153-252 283-297 76-26 229-26 305 0 130 45 241 163 283 297 70 223-51 467-271 552-75 29-210 35-286 14z m291-79c86-40 153-107 195-196 29-61 33-81 33-161s-4-100-33-161c-42-89-109-156-198-198-102-49-231-49-333 0-90 42-156 109-198 198-29 61-34 81-34 161s5 100 34 161c52 112 154 196 270 226 73 18 190 6 264-30z m-214-119c-63-27-77-113-27-164 92-90 234 39 150 136-27 30-85 43-123 28z m-38-234c-42-21-63-68-63-138v-59h290v59c0 72-21 117-64 139-40 21-126 21-163-1z" horiz-adv-x="1000" />

<glyph glyph-name="i-pile-livres" unicode="&#xe657;" d="M28 685c0-30 1-32 31-32 34 0 69-33 69-64s-35-65-69-65c-30 0-31-1-31-32v-32h211l-18-24c-16-20-19-37-19-105 0-44 4-84 9-86 20-12 7-22-38-25-39-4-53-10-74-34-23-26-26-36-26-91 0-65 12-91 53-111 13-7 128-10 364-10h345v32c0 30-2 32-31 32-34 0-70 33-70 64 0 25 39 55 72 55 22 0 29 4 29 19 0 16 6 18 64 18h64v32c0 30-1 32-32 32-26 0-36 6-50 31-23 37-23 62 1 92 13 18 27 24 50 24 30 0 31 2 31 32v32h-212l19 27c25 36 27 151 3 181-32 39-43 40-400 40h-345v-32z m677-85c1-29-2-55-9-63-8-10-57-13-275-13h-264l14 26c16 32 16 57-2 83l-14 20 273-2 274-3 3-48z m116-211c-15-38-15-74-1-101l16-30h-265c-194 0-267 3-276 11-11 12-15 120-4 130 3 3 126 6 271 6 249 0 266-1 259-16z m-127-252c-19-25-19-41-2-73l14-26h-265c-192 0-266 3-274 11-15 15-15 83 0 97 8 9 82 11 276 11h264l-13-20z" horiz-adv-x="1000" />

<glyph glyph-name="i-prelevement" unicode="&#xe658;" d="M69 631c-31-6-54-30-60-60-2-7-2-30-2-222 0-235 0-222 6-236 3-7 9-17 14-23 9-9 24-18 38-22 5-2 22-2 328-2l322 0-7 4c-23 14-46 37-63 62-5 8-15 26-18 34l-2 5h-64v30h27c15 0 27 0 27 0 0 0 0 5-1 11-9 55 5 111 39 155 7 10 23 27 33 35 59 49 143 62 215 33 4-2 8-3 9-3s0 30 0 67c0 77 0 76-8 91-10 19-24 31-45 39l-9 3-386 0c-319 0-388 0-393-1z m139-77c4-2 9-7 10-11 0-2 1-27 1-56v-53l-3-5c-2-3-4-5-7-6-5-2-5-2-60-2l-56 0-3 3c-2 1-5 4-6 6l-2 4v53c0 29 0 54 0 56 1 4 6 9 11 11 3 1 7 2 57 2s54-1 58-2z m105-15c2-1 5-3 6-5 5-5 3-17-2-22-3-3-10-5-17-5h-5v-20l-10 1-1 25c0 18 0 26 1 27 1 1 4 2 12 2 10 0 12-1 16-3z m52 0c10-5 11-18 1-24l-3-2 2-2c3-3 11-21 10-23 0-1-10-1-11 1 0 0-2 4-3 8-4 10-7 13-11 13h-4l0-11 0-11h-10l-1 26c0 14 0 26 1 26 0 1 3 2 12 2 11 0 13-1 17-3z m56-1v-4l-21-1v-13l18-1v-7l-18-1v-14l21-1v-8l-15 0c-14 0-16 0-17 1-1 3-1 50 0 51 1 1 6 2 17 1l15 0v-3z m25-19l1-22 18-1v-8h-14c-9 0-14 0-15 1-1 1-2 51 0 52 0 0 3 1 5 1h5l0-23z m63 19v-4l-21-1v-13l18-1v-7l-18-1v-14l21-1v-8h-31l-1 26c0 14 0 26 1 26 0 1 4 2 15 1l16 0v-3z m26-13c3-9 6-18 7-21l2-6 5 16c3 9 6 19 7 22l1 6h6c3 0 5-1 5-1 0-1-4-13-9-27l-9-26-6 0c-5 0-7 0-8 1-1 2-18 51-17 52 0 0 3 1 6 1h5l5-17z m77 15c0-2 0-3 0-4-1-2-2-2-11-3l-10 0v-13l8 0c10-1 11-1 10-6-1-2-1-2-10-2h-9v-15h11c10 0 10-1 11-3 1-6 1-6-15-6-10 0-16 0-17 1-1 1-1 6-1 25 0 13 0 25 1 26 0 1 3 2 16 2 14 0 15-1 16-2z m31 0c1 0 5-9 8-18 4-10 7-18 7-18 1 0 4 8 8 18 4 11 7 18 8 19 1 0 5 1 9 0l7 0 0-27 0-26h-10l0 22 0 23-9-22-8-23h-10l-15 43-1-43h-10l-1 25c0 18 0 26 1 27 2 2 14 2 16 0z m96-2v-4h-21v-14h18l0-4 0-4-18-1v-14l21-1v-8h-31l-1 26c0 14 0 26 1 26 0 1 4 2 16 2h15v-4z m31 0c2-2 7-11 11-19l8-16v39h10v-26c0-19 0-26-1-27-2-2-11-2-13 0-2 2-20 36-20 37 0 1 0 2-1 2 0 0 0-9 0-20v-20l-10-1v27c0 14 0 27 1 27 0 0 3 1 7 1 6 0 6-1 8-4z m82-1v-4l-16-1v-45l-10 1-1 22 0 22-14 1-1 4 0 5 21-1 21 0v-4z m-633-351v-15h-138v30h138v-15z m160 0v-15h-138v30h138v-15z m159 0v-15h-137v30h137v-15z m-243 338l1-9 4 0c7 0 10 4 10 9s-2 9-9 9l-6 1 0-10z m51 2l1-8 4 0c7 0 10 3 10 7 0 2 0 5-1 5-1 2-5 4-9 4h-5l0-8z m456-109c-2 0-8-1-14-3-44-8-82-32-109-67-23-31-34-64-34-103 0-46 17-87 49-120 33-34 74-52 121-53 40-1 77 9 109 32 12 9 33 29 40 40 21 30 31 60 33 96 1 37-10 74-33 106-7 11-28 32-40 40-23 16-51 27-79 31-10 1-33 2-43 1z m100-116l11-10-3-3c-2-2-26-25-54-51s-53-51-57-54l-7-7-31 34-32 33 7 6c3 4 9 9 13 12l6 6 43-44 46 44c25 25 46 44 46 44s6-4 12-10z" horiz-adv-x="1000" />

<glyph glyph-name="i-punaise" unicode="&#xe659;" d="M616 772v-83l-139-109c-77-60-138-113-136-118s53-62 116-128l112-118 119 145 119 145h72c39 0 71 3 71 8 0 5-74 84-167 175l-166 167-1-84z m-480-335c-17-6-30-16-28-20 2-6 95-106 208-223l205-213 16 31c9 18 19 66 22 108l5 77-253 253-72-1c-40 0-87-6-103-12z m28-345c-55-56-110-120-120-141l-18-38 54 33c71 43 231 208 222 232-12 31-35 16-138-86z" horiz-adv-x="1000" />

<glyph glyph-name="i-r-arbre" unicode="&#xe65a;" d="M461 835c-99-11-179-41-253-96-27-21-75-68-95-96-53-71-85-153-93-241-3-30-2-82 3-112 27-175 149-320 317-379 27-9 63-18 92-22 32-5 104-5 136 0 103 15 195 60 268 130 65 63 109 138 131 224 11 44 14 66 14 117s-3 73-14 117c-31 122-110 227-220 291-53 32-115 54-177 63-20 3-93 6-109 4z m56-173c20-3 37-12 52-26s23-31 26-50l2-13 14-3c35-6 62-28 73-62 8-24 4-55-10-76-5-8-6-9-3-11 36-22 55-46 62-78 4-18 3-47-3-64-16-46-57-76-106-79-31-1-61 9-83 29l-11 9v-108l4-2c14-3 38-17 50-30 11-11 26-34 26-39 0-2-218-2-220 0-2 2 15 28 26 39 14 14 39 28 53 31l7 1v114l-13-12c-16-14-40-26-59-30-18-4-44-2-62 5-34 11-60 38-72 72-6 17-8 48-3 65 8 30 31 60 57 74l13 7-7 15c-5 9-9 20-10 28-7 48 28 95 78 103l14 2 1 12c1 16 12 37 25 51 13 12 34 23 51 26 7 1 12 2 13 2 1 0 7-1 15-2z" horiz-adv-x="1000" />

<glyph glyph-name="i-r-document" unicode="&#xe65b;" d="M461 829c-3-1-15-2-25-3-40-5-89-18-132-36-141-61-247-191-278-340-7-36-9-54-9-98 0-78 13-136 47-205 70-144 204-242 366-266 32-5 104-5 136 0 175 26 319 140 382 301 22 57 31 106 31 171s-9 114-31 171c-63 161-207 275-380 301-20 3-94 6-107 4z m212-291l91-95v-351l-4-8c-3-5-9-11-14-14l-9-5h-446l-9 5c-5 3-11 8-13 12l-5 7v258c0 145 1 261 2 263 2 7 12 16 19 19 5 2 35 3 151 3h146l91-94z m-99-18c0-35 1-64 2-66 1-1 15-2 64-2l62 1-62 64c-35 35-63 64-64 65-1 0-2-28-2-62z m-223-177c-6-5-7-18-2-23 6-8 6-8 159-8s153 0 159 8c5 5 4 18-2 23l-5 5h-304l-5-5z m6-72c-13-5-15-21-5-30l6-5h300l6 5c10 9 8 25-5 30-10 4-293 4-302 0z m-6-76c-8-7-7-19 1-26l6-5h300l6 5c8 7 9 19 1 26l-5 5h-304l-5-5z" horiz-adv-x="1000" />

</font>
</defs>
</svg>
