<?xml version="1.0" encoding="utf-8"?>
<!-- Generator: Adobe Illustrator 16.0.3, SVG Export Plug-In . SVG Version: 6.00 Build 0)  -->
<!DOCTYPE svg PUBLIC "-//W3C//DTD SVG 1.1//EN" "http://www.w3.org/Graphics/SVG/1.1/DTD/svg11.dtd">
<svg version="1.1" id="Calque_1" xmlns="http://www.w3.org/2000/svg" xmlns:xlink="http://www.w3.org/1999/xlink" x="0px" y="0px"
	 width="572.909px" height="138px" viewBox="0 0 572.909 138" enable-background="new 0 0 572.909 138" xml:space="preserve">
<rect x="-2719" y="718" fill="#51514C" width="1024" height="768"/>
<polygon fill="#FFFFFF" points="-2152.064,1069.825 -2151.723,1069.825 -2151.723,1069.296 "/>
<g>
	<defs>
		<rect id="SVGID_1_" x="-2719" y="-50" width="2048" height="1536"/>
	</defs>
	<clipPath id="SVGID_2_">
		<use xlink:href="#SVGID_1_"  overflow="visible"/>
	</clipPath>
	<path clip-path="url(#SVGID_2_)" fill="#FFFFFF" d="M-2112.419,1182.714c-3.887-0.17-7.857-1.223-11.912-3.159
		c-4.052-1.931-7.77-4.624-11.15-8.077c-3.383-3.446-6.124-7.7-8.235-12.749c-2.114-5.048-3.167-10.857-3.167-17.424V1002h36.747
		v136.529c0,5.389,1.392,9.594,4.179,12.624c2.787,3.031,6.123,4.969,10.01,5.807L-2112.419,1182.714z"/>
	<path clip-path="url(#SVGID_2_)" fill="#FFFFFF" d="M-2023.949,1127.674l-15.458,1.517c-5.409,0.504-9.249,2.23-11.53,5.174
		c-2.281,2.945-3.422,6.186-3.422,9.718c0,3.031,1.141,5.643,3.422,7.828c2.281,2.189,5.195,3.284,8.741,3.284
		c4.562,0,8.745-1.599,12.546-4.802c3.801-3.191,5.701-7.232,5.701-12.112V1127.674z M-1988.722,1181.198
		c-11.491-0.847-19.602-5.131-24.331-12.876c-3.887,4.379-8.658,7.613-14.316,9.716c-5.664,2.103-11.618,3.16-17.867,3.16
		c-5.746,0-11.151-0.847-16.219-2.524c-5.067-1.68-9.504-4.166-13.302-7.451c-3.805-3.279-6.763-7.232-8.873-11.864
		c-2.114-4.625-3.167-9.886-3.167-15.78c0-10.604,3.675-19.145,11.024-25.627c7.35-6.476,16.684-10.307,28.004-11.486l22.806-2.274
		v-4.034c0-3.539-1.392-6.397-4.181-8.586c-2.787-2.188-7.392-3.282-13.811-3.282c-6.589,0-12.926,0.754-19.008,2.27
		c-6.079,1.515-10.984,3.369-14.695,5.558l-2.791-28.28c4.391-2.354,10.14-4.289,17.233-5.803
		c7.098-1.517,14.194-2.275,21.289-2.275c16.048,0,28.72,3.957,38.014,11.868c9.288,7.912,13.938,19.271,13.938,34.081v32.824
		c0,5.048,1.181,8.964,3.546,11.737c2.365,2.779,5.577,4.507,9.629,5.177L-1988.722,1181.198z"/>
	<path clip-path="url(#SVGID_2_)" fill="#FFFFFF" d="M-1899.622,1098.23c-0.876-1.838-1.909-3.637-3.389-5.273
		c-3.127-3.449-7.392-5.173-12.797-5.173c-5.576,0-10.516,1.808-14.825,5.426c-4.306,3.622-7.138,8.375-8.49,14.266h25.956
		C-1906.948,1107.476-1895.186,1107.515-1899.622,1098.23 M-1867.768,1109.495c-3.945,19.207-27.364,21.712-35.511,21.712h-34.575
		c0.673,2.528,1.855,5.096,3.546,7.699c1.689,2.611,3.928,4.924,6.715,6.943c2.789,2.021,6.123,3.704,10.01,5.052
		c3.885,1.347,8.364,2.02,13.434,2.02c6.586,0,27.7-3.004,33.746-4.623l-7.819,28.092c-3.889,1.852-4.683,1.648-10.343,2.914
		c-5.662,1.262-12.291,1.895-19.895,1.895c-9.292,0-18.035-1.434-26.226-4.293c-8.198-2.861-15.333-6.98-21.415-12.37
		c-6.083-5.384-10.859-11.868-14.318-19.442c-3.466-7.573-5.195-15.988-5.195-25.247c0-9.254,1.604-17.583,4.813-24.994
		c3.209-7.405,7.559-13.714,13.052-18.935c5.487-5.218,11.824-9.215,19.008-11.993c7.178-2.776,14.822-4.166,22.932-4.166
		c7.939,0,15.119,1.263,21.542,3.789c6.417,2.52,11.821,5.891,16.219,10.095c4.391,4.209,8.85,11.821,9.989,17.669
		C-1866.81,1097.714-1866.607,1103.845-1867.768,1109.495"/>
	<path clip-path="url(#SVGID_2_)" fill="#FFFFFF" d="M-2172.471,1182.714c-3.887-0.17-7.857-1.223-11.912-3.159
		c-4.052-1.931-7.77-4.624-11.15-8.077c-3.383-3.446-6.124-7.7-8.235-12.749c-2.114-5.048-3.167-10.857-3.167-17.424v-74.002h36.747
		v71.227c0,5.389,1.392,9.594,4.179,12.624c2.787,3.031,6.123,4.969,10.01,5.807L-2172.471,1182.714z"/>
	<path clip-path="url(#SVGID_2_)" fill="#FFFFFF" d="M-2202.512,1002.452h-87.113c-10.565,0-17.375,8.618-17.375,17.568v83.294
		v66.845c0,4.912,2.888,7.338,6.76,7.338h18.311h11.59v-9.541v-64.642h37.715c0.59,0,1.142-0.022,1.67-0.062l7.774-30.627
		c-1.284-3.011-4.07-5.834-9.973-5.834h-37.186v-27.816h69.939c0.129,0,0.256-0.019,0.385-0.024l8.325-32.801
		C-2193.576,1003.832-2196.876,1002.452-2202.512,1002.452"/>
	<path clip-path="url(#SVGID_2_)" fill="#FFFFFF" d="M-2361.933,1002h-121.499c-8.022,0-14.548,6.757-14.548,15.061v37.399
		c0,3.313-0.959,5.644-2.632,6.398c-1.61,0.724-3.915,0.08-5.875-1.647c-7.507-6.62-17.47-8.477-26.003-4.844
		c-8.631,3.675-14.054,12.324-14.505,23.138c-0.006,0.155-0.006,0.311,0,0.465c0.452,10.824,5.865,19.478,14.48,23.145
		c8.501,3.621,18.439,1.758,25.936-4.852c1.972-1.735,4.307-2.38,5.944-1.64c1.687,0.761,2.655,3.09,2.655,6.391v37.398
		c0,8.2,6.255,14.384,14.548,14.384h22.001c-0.485-0.252-0.883-0.629-1.232-1.063c-0.965-0.834-1.567-2.151-1.567-3.994v-46.074
		v-57.411c0-6.169,4.682-12.109,11.946-12.109h59.893c3.875,0,6.145,0.951,7.441,2.549l-5.724,22.608
		c-0.088,0.004-0.176,0.018-0.264,0.018h-48.048v18.354h25.093c3.592,0,5.463,1.557,6.433,3.355
		c0.359,0.469,0.642,0.973,0.859,1.483l-5.345,21.111c-0.363,0.026-0.742,0.042-1.148,0.042h-25.892v45.213v5.919h0.002v4.177
		c-0.021,0.133-0.039,0.267-0.051,0.401c-0.125,1.334-0.806,2.761-1.916,4.017c-6.641,7.514-8.494,17.506-4.838,26.076
		c3.689,8.645,12.345,14.076,23.154,14.528c0.078,0.003,0.156,0.005,0.233,0.005c0.078,0,0.156-0.002,0.233-0.005
		c10.809-0.45,19.465-5.875,23.153-14.513c3.654-8.562,1.801-18.548-4.836-26.059c-1.742-1.973-2.386-4.313-1.639-5.966
		c0.764-1.692,3.095-2.662,6.393-2.662h37.165c8.373,0,14.933-6.319,14.933-14.384v-121.352
		C-2347,1008.757-2353.699,1002-2361.933,1002"/>
	<rect x="-1695" y="718" clip-path="url(#SVGID_2_)" fill="#F96566" width="1024" height="768"/>
	<polygon clip-path="url(#SVGID_2_)" fill="#FFFFFF" points="-1128.064,1069.826 -1127.724,1069.826 -1127.724,1069.295 	"/>
	<path clip-path="url(#SVGID_2_)" fill="#FFFFFF" d="M-1088.419,1182.714c-3.887-0.17-7.857-1.223-11.912-3.159
		c-4.052-1.931-7.77-4.624-11.149-8.077c-3.384-3.446-6.125-7.7-8.235-12.749c-2.114-5.048-3.167-10.857-3.167-17.424V1002h36.747
		v136.529c0,5.389,1.392,9.594,4.179,12.624c2.787,3.031,6.123,4.969,10.01,5.807L-1088.419,1182.714z"/>
	<path clip-path="url(#SVGID_2_)" fill="#FFFFFF" d="M-999.949,1127.674l-15.458,1.517c-5.409,0.504-9.249,2.23-11.53,5.174
		c-2.281,2.945-3.422,6.186-3.422,9.718c0,3.031,1.141,5.643,3.422,7.828c2.281,2.189,5.195,3.284,8.741,3.284
		c4.562,0,8.745-1.599,12.546-4.802c3.801-3.191,5.701-7.232,5.701-12.112V1127.674z M-964.723,1181.198
		c-11.49-0.847-19.602-5.131-24.33-12.876c-3.888,4.379-8.658,7.613-14.316,9.716c-5.664,2.103-11.618,3.16-17.867,3.16
		c-5.746,0-11.15-0.847-16.219-2.524c-5.067-1.68-9.504-4.166-13.302-7.451c-3.806-3.279-6.764-7.232-8.873-11.864
		c-2.114-4.625-3.167-9.886-3.167-15.78c0-10.604,3.675-19.145,11.023-25.627c7.351-6.476,16.685-10.307,28.004-11.486l22.807-2.274
		v-4.034c0-3.539-1.393-6.397-4.182-8.586c-2.787-2.188-7.392-3.282-13.811-3.282c-6.589,0-12.926,0.754-19.008,2.27
		c-6.079,1.515-10.984,3.369-14.695,5.558l-2.791-28.28c4.391-2.354,10.14-4.289,17.233-5.803
		c7.098-1.517,14.193-2.275,21.288-2.275c16.049,0,28.721,3.957,38.015,11.868c9.288,7.912,13.938,19.271,13.938,34.081v32.824
		c0,5.048,1.181,8.964,3.546,11.737c2.365,2.779,5.577,4.507,9.63,5.177L-964.723,1181.198z"/>
	<path clip-path="url(#SVGID_2_)" fill="#FFFFFF" d="M-875.621,1098.23c-0.877-1.838-1.909-3.637-3.39-5.273
		c-3.127-3.449-7.392-5.173-12.797-5.173c-5.576,0-10.516,1.808-14.825,5.426c-4.306,3.622-7.138,8.375-8.49,14.266h25.957
		C-882.947,1107.476-871.186,1107.515-875.621,1098.23 M-843.768,1109.495c-3.945,19.207-27.364,21.712-35.511,21.712h-34.575
		c0.673,2.528,1.855,5.096,3.546,7.699c1.689,2.611,3.928,4.924,6.715,6.943c2.789,2.021,6.123,3.704,10.011,5.052
		c3.885,1.347,8.364,2.02,13.434,2.02c6.586,0,27.7-3.004,33.746-4.623l-7.819,28.092c-3.889,1.852-4.683,1.648-10.343,2.914
		c-5.662,1.262-12.291,1.895-19.895,1.895c-9.293,0-18.035-1.434-26.227-4.293c-8.198-2.861-15.333-6.98-21.415-12.37
		c-6.083-5.384-10.858-11.868-14.317-19.442c-3.467-7.573-5.195-15.988-5.195-25.247c0-9.254,1.604-17.583,4.813-24.994
		c3.209-7.405,7.56-13.714,13.052-18.935c5.487-5.218,11.824-9.215,19.009-11.993c7.178-2.776,14.821-4.166,22.932-4.166
		c7.939,0,15.119,1.263,21.542,3.789c6.416,2.52,11.821,5.891,16.219,10.095c4.392,4.209,8.851,11.821,9.989,17.669
		C-842.81,1097.714-842.607,1103.845-843.768,1109.495"/>
	<path clip-path="url(#SVGID_2_)" fill="#FFFFFF" d="M-1148.471,1182.714c-3.888-0.17-7.857-1.223-11.912-3.159
		c-4.053-1.931-7.771-4.624-11.15-8.077c-3.383-3.446-6.125-7.7-8.235-12.749c-2.113-5.048-3.167-10.857-3.167-17.424v-74.002
		h36.747v71.227c0,5.389,1.393,9.594,4.18,12.624c2.786,3.031,6.123,4.969,10.01,5.807L-1148.471,1182.714z"/>
	<path clip-path="url(#SVGID_2_)" fill="#FFFFFF" d="M-1178.512,1002.452h-87.113c-10.565,0-17.375,8.618-17.375,17.568v83.294
		v66.845c0,4.912,2.888,7.338,6.76,7.338h18.311h11.591v-9.541v-64.642h37.715c0.59,0,1.142-0.022,1.67-0.062l7.773-30.627
		c-1.283-3.011-4.069-5.834-9.973-5.834h-37.186v-27.816h69.938c0.129,0,0.256-0.019,0.385-0.024l8.325-32.801
		C-1169.575,1003.832-1172.876,1002.452-1178.512,1002.452"/>
	<path clip-path="url(#SVGID_2_)" fill="#FFFFFF" d="M-1337.933,1002h-121.499c-8.022,0-14.549,6.757-14.549,15.061v37.399
		c0,3.313-0.959,5.644-2.632,6.398c-1.609,0.724-3.915,0.08-5.875-1.647c-7.507-6.62-17.47-8.477-26.003-4.844
		c-8.631,3.675-14.054,12.324-14.505,23.138c-0.006,0.155-0.006,0.311,0,0.465c0.452,10.824,5.865,19.478,14.48,23.145
		c8.501,3.621,18.438,1.758,25.936-4.852c1.972-1.735,4.307-2.38,5.944-1.64c1.687,0.761,2.654,3.09,2.654,6.391v37.398
		c0,8.2,6.256,14.384,14.549,14.384h22.001c-0.485-0.252-0.884-0.629-1.232-1.063c-0.966-0.834-1.567-2.151-1.567-3.994v-46.074
		v-57.411c0-6.169,4.683-12.109,11.946-12.109h59.894c3.875,0,6.145,0.951,7.44,2.549l-5.724,22.608
		c-0.088,0.004-0.176,0.018-0.264,0.018h-48.049v18.354h25.094c3.592,0,5.463,1.557,6.433,3.355
		c0.358,0.469,0.642,0.973,0.858,1.483l-5.345,21.111c-0.362,0.026-0.741,0.042-1.147,0.042h-25.893v45.213v5.919h0.002v4.177
		c-0.021,0.133-0.039,0.267-0.051,0.401c-0.125,1.334-0.806,2.761-1.916,4.017c-6.641,7.514-8.494,17.506-4.838,26.076
		c3.689,8.645,12.345,14.076,23.154,14.528c0.078,0.003,0.156,0.005,0.232,0.005c0.078,0,0.156-0.002,0.233-0.005
		c10.809-0.45,19.465-5.875,23.153-14.513c3.653-8.562,1.801-18.548-4.836-26.059c-1.742-1.973-2.387-4.313-1.64-5.966
		c0.765-1.692,3.095-2.662,6.394-2.662h37.165c8.372,0,14.933-6.319,14.933-14.384v-121.352
		C-1323,1008.757-1329.699,1002-1337.933,1002"/>
	<polygon clip-path="url(#SVGID_2_)" fill="#F96566" points="-1612.597,291.739 -1612.084,291.739 -1612.084,290.943 	"/>
	<path clip-path="url(#SVGID_2_)" fill="#F96566" d="M-1553.129,461.071c-5.831-0.255-11.785-1.835-17.867-4.739
		c-6.078-2.896-11.656-6.937-16.725-12.116c-5.075-5.17-9.188-11.55-12.353-19.124c-3.171-7.573-4.751-16.286-4.751-26.137V190
		h55.119v204.794c0,8.083,2.09,14.39,6.27,18.936c4.18,4.545,9.184,7.453,15.015,8.71L-1553.129,461.071z"/>
	<path clip-path="url(#SVGID_2_)" fill="#F96566" d="M-1420.424,378.511l-23.187,2.274c-8.114,0.756-13.874,3.347-17.295,7.761
		c-3.421,4.419-5.134,9.279-5.134,14.577c0,4.546,1.713,8.465,5.134,11.741c3.421,3.286,7.793,4.927,13.111,4.927
		c6.843,0,13.118-2.397,18.818-7.201c5.701-4.789,8.552-10.85,8.552-18.171V378.511z M-1367.583,458.797
		c-17.236-1.269-29.403-7.696-36.496-19.314c-5.831,6.568-12.988,11.421-21.476,14.575c-8.496,3.153-17.427,4.739-26.799,4.739
		c-8.62,0-16.727-1.269-24.329-3.787c-7.601-2.52-14.256-6.248-19.954-11.175c-5.707-4.921-10.143-10.849-13.309-17.799
		c-3.171-6.937-4.751-14.826-4.751-23.669c0-15.905,5.513-28.716,16.536-38.44c11.025-9.712,25.025-15.46,42.006-17.229l34.21-3.412
		v-6.051c0-5.308-2.089-9.596-6.272-12.879c-4.18-3.282-11.088-4.923-20.716-4.923c-9.885,0-19.39,1.131-28.512,3.405
		c-9.119,2.272-16.477,5.053-22.042,8.335l-4.188-42.42c6.588-3.532,15.209-6.433,25.851-8.704
		c10.646-2.275,21.289-3.412,31.933-3.412c24.072,0,43.079,5.935,57.021,17.802c13.932,11.867,20.907,28.906,20.907,51.122v49.234
		c0,7.573,1.771,13.447,5.318,17.608c3.548,4.168,8.367,6.759,14.444,7.764L-1367.583,458.797z"/>
	<path clip-path="url(#SVGID_2_)" fill="#F96566" d="M-1233.933,334.345c-1.313-2.757-2.862-5.456-5.084-7.908
		c-4.688-5.176-11.088-7.761-19.194-7.761c-8.364,0-15.774,2.711-22.237,8.139c-6.46,5.434-10.708,12.561-12.735,21.398h38.934
		C-1244.921,348.213-1227.278,348.271-1233.933,334.345 M-1186.151,351.243c-5.917,28.811-41.046,32.567-53.266,32.567h-51.863
		c1.009,3.793,2.783,7.644,5.319,11.55c2.532,3.916,5.893,7.386,10.072,10.413c4.184,3.034,9.185,5.557,15.016,7.58
		c5.827,2.019,12.546,3.027,20.15,3.027c9.878,0,41.549-4.506,50.619-6.934l-11.729,42.138c-5.834,2.779-7.025,2.474-15.516,4.371
		c-8.492,1.893-18.436,2.843-29.841,2.843c-13.938,0-27.053-2.152-39.341-6.439c-12.296-4.294-22.998-10.472-32.121-18.555
		c-9.125-8.077-16.289-17.805-21.478-29.165c-5.198-11.36-7.793-23.982-7.793-37.872c0-13.88,2.406-26.373,7.223-37.49
		c4.812-11.108,11.337-20.571,19.577-28.403c8.23-7.825,17.736-13.821,28.512-17.989c10.768-4.164,22.234-6.248,34.398-6.248
		c11.907,0,22.678,1.893,32.313,5.683c9.625,3.78,17.732,8.836,24.328,15.143c6.587,6.313,13.275,17.731,14.984,26.503
		C-1184.715,333.57-1184.411,342.766-1186.151,351.243"/>
	<path clip-path="url(#SVGID_2_)" fill="#F96566" d="M-1643.207,461.071c-5.831-0.255-11.785-1.835-17.869-4.739
		c-6.076-2.896-11.654-6.937-16.723-12.116c-5.075-5.17-9.188-11.55-12.353-19.124c-3.171-7.573-4.751-16.286-4.751-26.137V287.953
		h55.119v106.842c0,8.083,2.09,14.39,6.27,18.936c4.18,4.545,9.184,7.453,15.015,8.71L-1643.207,461.071z"/>
	<path clip-path="url(#SVGID_2_)" fill="#F96566" d="M-1688.269,190.679h-130.668c-15.848,0-26.063,12.927-26.063,26.352v124.942
		V442.24c0,7.367,4.332,11.006,10.141,11.006h27.466h17.384v-14.31v-96.963h56.573c0.885,0,1.713-0.036,2.505-0.094l11.661-45.941
		c-1.925-4.515-6.105-8.751-14.959-8.751h-55.78v-41.723h104.909c0.194,0,0.384-0.028,0.577-0.037l12.488-49.202
		C-1674.863,192.75-1679.814,190.679-1688.269,190.679"/>
	<path clip-path="url(#SVGID_2_)" fill="#F96566" d="M-1927.399,190h-182.248c-12.033,0-21.822,10.135-21.822,22.591v56.099
		c0,4.968-1.439,8.466-3.949,9.597c-2.414,1.086-5.873,0.12-8.812-2.47c-11.261-9.931-26.205-12.716-39.004-7.266
		c-12.947,5.511-21.081,18.486-21.759,34.707c-0.009,0.232-0.009,0.465,0,0.696c0.679,16.237,8.799,29.216,21.721,34.717
		c12.751,5.431,27.659,2.637,38.905-7.277c2.957-2.603,6.459-3.569,8.915-2.46c2.531,1.142,3.983,4.636,3.983,9.587v56.097
		c0,12.299,9.381,21.576,21.822,21.576h33.001c-0.728-0.378-1.324-0.943-1.848-1.596c-1.448-1.251-2.351-3.226-2.351-5.991v-69.11
		v-86.118c0-9.253,7.023-18.164,17.919-18.164h89.84c5.813,0,9.217,1.428,11.162,3.823l-8.586,33.913
		c-0.133,0.007-0.264,0.026-0.397,0.026h-72.072v27.531h37.639c5.389,0,8.196,2.335,9.65,5.033c0.54,0.703,0.963,1.458,1.289,2.226
		l-8.017,31.665c-0.545,0.04-1.114,0.065-1.722,0.065h-38.839v67.818v8.879h0.004v6.265c-0.032,0.198-0.059,0.4-0.077,0.603
		c-0.188,2.001-1.21,4.141-2.874,6.024c-9.962,11.27-12.742,26.258-7.257,39.114c5.534,12.967,18.517,21.114,34.731,21.792
		c0.117,0.005,0.233,0.008,0.35,0.008s0.234-0.003,0.349-0.008c16.214-0.675,29.197-8.813,34.729-21.769
		c5.482-12.841,2.702-27.82-7.254-39.087c-2.613-2.959-3.578-6.471-2.458-8.949c1.146-2.539,4.642-3.993,9.589-3.993h55.748
		c12.56,0,22.4-9.479,22.4-21.576V212.591C-1905,200.135-1915.048,190-1927.399,190"/>
	<polygon clip-path="url(#SVGID_2_)" fill="#ED6A5B" points="-2672.333,687.882 -2671.962,687.882 -2671.962,687.303 	"/>
</g>
<g>
	<path fill="#FFFFFF" d="M339.368,114.158c-2.174-0.098-4.393-0.686-6.664-1.769c-2.266-1.08-4.348-2.587-6.238-4.519
		c-1.895-1.929-3.426-4.309-4.605-7.133c-1.182-2.824-1.77-6.074-1.77-9.748V13.054h20.555v76.383c0,3.016,0.779,5.368,2.34,7.063
		c1.559,1.695,3.426,2.78,5.598,3.248L339.368,114.158z"/>
	<path fill="#FFFFFF" d="M388.866,83.364l-8.65,0.848c-3.025,0.282-5.174,1.248-6.449,2.895c-1.277,1.647-1.916,3.461-1.916,5.437
		c0,1.696,0.639,3.157,1.916,4.38c1.275,1.226,2.904,1.838,4.889,1.838c2.551,0,4.893-0.894,7.02-2.688
		c2.127-1.784,3.191-4.046,3.191-6.775V83.364z M408.573,113.31c-6.428-0.474-10.967-2.872-13.613-7.205
		c-2.174,2.45-4.844,4.26-8.008,5.436c-3.17,1.177-6.5,1.77-9.996,1.77c-3.217,0-6.238-0.474-9.074-1.412
		c-2.834-0.941-5.318-2.332-7.441-4.169c-2.131-1.835-3.783-4.046-4.963-6.639c-1.186-2.587-1.775-5.53-1.775-8.828
		c0-5.932,2.059-10.71,6.17-14.337c4.111-3.624,9.334-5.767,15.668-6.426l12.758-1.273v-2.257c0-1.979-0.779-3.579-2.338-4.804
		c-1.561-1.225-4.139-1.837-7.729-1.837c-3.686,0-7.232,0.423-10.635,1.271c-3.398,0.847-6.143,1.885-8.223,3.107l-1.561-15.821
		c2.457-1.318,5.676-2.399,9.643-3.245c3.971-0.849,7.939-1.274,11.91-1.274c8.979,0,16.068,2.215,21.266,6.64
		c5.197,4.427,7.801,10.782,7.801,19.068v18.363c0,2.824,0.658,5.016,1.982,6.566c1.324,1.556,3.119,2.521,5.389,2.896
		L408.573,113.31z"/>
	<path fill="#FFFFFF" d="M458.423,66.892c-0.492-1.028-1.07-2.034-1.896-2.951c-1.75-1.929-4.135-2.894-7.162-2.894
		c-3.117,0-5.881,1.012-8.291,3.036c-2.41,2.026-3.994,4.685-4.752,7.981h14.523C454.325,72.064,460.901,72.086,458.423,66.892
		 M476.241,73.192c-2.207,10.746-15.307,12.148-19.865,12.148h-19.344c0.375,1.414,1.037,2.851,1.984,4.307
		c0.943,1.461,2.197,2.756,3.758,3.886c1.559,1.131,3.424,2.071,5.598,2.826c2.174,0.753,4.682,1.129,7.52,1.129
		c3.684,0,15.494-1.681,18.879-2.587l-4.377,15.717c-2.176,1.036-2.619,0.922-5.787,1.631c-3.166,0.706-6.877,1.061-11.129,1.061
		c-5.199,0-10.092-0.803-14.674-2.402c-4.586-1.601-8.576-3.906-11.979-6.921c-3.406-3.013-6.076-6.64-8.012-10.878
		c-1.938-4.236-2.906-8.944-2.906-14.124c0-5.177,0.898-9.837,2.691-13.983c1.797-4.144,4.23-7.673,7.303-10.594
		c3.072-2.919,6.617-5.154,10.637-6.709c4.014-1.554,8.289-2.33,12.826-2.33c4.443,0,8.461,0.705,12.055,2.118
		c3.59,1.41,6.613,3.296,9.072,5.649c2.457,2.354,4.953,6.613,5.59,9.884C476.778,66.604,476.892,70.031,476.241,73.192"/>
	<path fill="#FFFFFF" d="M305.772,114.158c-2.174-0.098-4.396-0.686-6.664-1.769c-2.27-1.08-4.348-2.587-6.238-4.519
		c-1.893-1.929-3.428-4.309-4.609-7.133s-1.77-6.074-1.77-9.748V49.589h20.557v39.848c0,3.016,0.779,5.368,2.34,7.063
		c1.559,1.695,3.426,2.78,5.6,3.248L305.772,114.158z"/>
	<path fill="#FFFFFF" d="M288.966,13.308h-48.736c-5.912,0-9.721,4.82-9.721,9.828v46.6v37.397c0,2.748,1.615,4.105,3.781,4.105
		h10.244h6.484V105.9V69.735h21.1c0.33,0,0.641-0.012,0.934-0.034l4.35-17.136c-0.717-1.684-2.277-3.264-5.578-3.264h-20.805V33.741
		h39.127c0.074,0,0.146-0.011,0.217-0.015l4.658-18.35C293.964,14.079,292.118,13.308,288.966,13.308"/>
	<path fill="#FFFFFF" d="M199.776,13.054h-67.975c-4.49,0-8.139,3.781-8.139,8.426v20.924c0,1.854-0.537,3.157-1.475,3.579
		c-0.898,0.405-2.189,0.045-3.287-0.922c-4.197-3.702-9.771-4.742-14.547-2.709c-4.828,2.056-7.865,6.896-8.115,12.944
		c-0.002,0.088-0.002,0.175,0,0.26c0.252,6.057,3.283,10.897,8.102,12.948c4.756,2.027,10.314,0.984,14.512-2.713
		c1.1-0.971,2.408-1.332,3.324-0.917c0.943,0.425,1.486,1.728,1.486,3.574v20.923c0,4.588,3.5,8.048,8.139,8.048h12.309
		c-0.271-0.141-0.494-0.352-0.691-0.596c-0.541-0.466-0.875-1.203-0.875-2.234V68.812V36.692c0-3.45,2.617-6.774,6.684-6.774h33.508
		c2.168,0,3.438,0.531,4.164,1.427l-3.203,12.648c-0.049,0.002-0.098,0.01-0.148,0.01h-26.881v10.268h14.039
		c2.01,0,3.055,0.872,3.598,1.878c0.201,0.262,0.359,0.544,0.48,0.83l-2.988,11.811c-0.203,0.015-0.418,0.022-0.643,0.022h-14.486
		v25.296v3.312l0,0v2.337c-0.012,0.074-0.021,0.149-0.029,0.224c-0.068,0.747-0.449,1.546-1.068,2.248
		c-3.717,4.204-4.754,9.794-2.709,14.589c2.063,4.836,6.908,7.874,12.953,8.128c0.047,0.002,0.086,0.002,0.131,0.002
		s0.088,0,0.131-0.002c6.047-0.253,10.891-3.287,12.955-8.12c2.041-4.79,1.006-10.376-2.707-14.578
		c-0.975-1.104-1.336-2.414-0.918-3.339c0.428-0.946,1.73-1.488,3.576-1.488h20.795c4.684,0,8.354-3.535,8.354-8.048V21.479
		C208.13,16.835,204.384,13.054,199.776,13.054"/>
</g>
</svg>
